<?xml version="1.0" encoding="UTF-8" standalone="no"?>
<!-- Created with Inkscape (http://www.inkscape.org/) -->

<svg
   width="1999.9999"
   height="1999.9999"
   viewBox="0 0 529.16662 529.16662"
   version="1.1"
   id="svg1"
   xmlns:xlink="http://www.w3.org/1999/xlink"
   xmlns="http://www.w3.org/2000/svg"
   xmlns:svg="http://www.w3.org/2000/svg">
  <defs
     id="defs1">
    <linearGradient
       id="linearGradient474">
      <stop
         style="stop-color:#003366;stop-opacity:0.98039216;"
         offset="0"
         id="stop474" />
      <stop
         style="stop-color:#006633;stop-opacity:0.98305082;"
         offset="1"
         id="stop475" />
    </linearGradient>
    <linearGradient
       xlink:href="#linearGradient474"
       id="linearGradient475"
       x1="288.771"
       y1="303.33133"
       x2="309.00128"
       y2="303.33133"
       gradientUnits="userSpaceOnUse"
       gradientTransform="matrix(3.9270621,0,0,3.9270621,-883.76155,-1074.1093)" />
  </defs>
  <g
     id="layer1">
    <path
       id="rect1"
       style="fill:#003366;fill-opacity:1;stroke:none;stroke-width:0.264583"
       d="m 316.65176,126.03313 a 8.6308138,8.6499253 0 0 1 -2.85128,-2.85938 c -7.28572,5.41004 -11.55361,12.59715 -15.17963,20.54529 7.95427,-4.16265 13.25985,-10.49995 18.03091,-17.68591 z" />
    <path
       id="path459"
       style="fill:url(#linearGradient475);fill-opacity:0.980392;fill-rule:nonzero;stroke:none;stroke-width:0.264583"
       d="m 294.1735,100.01869 a 8.6308138,8.6499253 0 0 0 -6.18348,3.02985 8.6308138,8.6499253 0 0 0 -2.44945,5.62132 8.6308138,8.6499253 0 0 0 5.23374,7.73595 8.6308138,8.6499253 0 0 0 3.39919,0.9132 8.6308138,8.6499253 0 0 0 2.71933,-0.49716 8.6308138,8.6499253 0 0 0 5.91156,-8.15199 8.6308138,8.6499253 0 0 0 -2.96084,-6.47365 175.88462,176.61223 0 0 0 -0.002,0 8.6308138,8.6499253 0 0 0 -5.668,-2.17752 z m -20.97754,3.99378 a 8.6308138,8.6499253 0 0 0 -5.77561,2.61991 8.6308138,8.6499253 0 0 0 -2.85529,6.02926 8.6308138,8.6499253 0 0 0 8.6309,8.6512 8.6308138,8.6499253 0 0 0 2.45347,-0.40591 8.6308138,8.6499253 0 0 0 3.61835,-2.17547 8.6308138,8.6499253 0 0 0 2.55703,-6.06982 8.6308138,8.6499253 0 0 0 -5.44074,-7.98757 8.6308138,8.6499253 0 0 0 -3.18811,-0.6616 z m 47.87882,5.98866 a 8.6308138,8.6499253 0 0 0 -8.6309,8.64916 8.6308138,8.6499253 0 0 0 1.35562,4.52346 8.6308138,8.6499253 0 0 0 2.85329,2.85938 8.6308138,8.6499253 0 0 0 4.42199,1.26836 8.6308138,8.6499253 0 0 0 8.63085,-8.6512 8.6308138,8.6499253 0 0 0 -8.63085,-8.64916 z m -62.18386,6.86537 a 8.6308138,8.6499253 0 0 0 -8.63085,8.64912 8.6308138,8.6499253 0 0 0 1.05932,3.95117 8.6308138,8.6499253 0 0 0 7.57153,4.69798 8.6308138,8.6499253 0 0 0 5.9907,-2.49611 c -0.10446,-0.13824 -0.19518,-0.29964 -0.29846,-0.44035 a 66.051739,66.324961 0 0 1 0.60881,0.12999 8.6308138,8.6499253 0 0 0 1.83453,-3.11915 8.6308138,8.6499253 0 0 0 0.49516,-2.72342 8.6308138,8.6499253 0 0 0 -8.63089,-8.64911 z" />
    <path
       id="path458"
       style="fill:#00cccc;fill-opacity:0.980392;stroke:none;stroke-width:0.264583"
       d="m 264.58332,131.22831 c 0.10328,0.14059 0.19597,0.302 0.30042,0.44035 a 8.6308138,8.6499253 0 0 0 0.31063,-0.31063 h -0.002 a 66.051739,66.324961 0 0 0 -0.60882,-0.13 z m 34.48298,15.43128 a 21.986679,22.032188 0 0 0 -6.27886,1.2501 21.986679,22.032188 0 0 0 -4.3266,1.89339 21.986679,22.032188 0 0 0 -1.15471,0.61895 21.986679,22.032188 0 0 1 1.15471,-0.61895 21.986679,22.032188 0 0 0 -8.88659,2.31347 21.986679,22.032188 0 0 0 -2.31351,1.5464 21.986679,22.032188 0 0 0 -4.7629,4.10135 21.986679,22.032188 0 0 0 -4.27995,8.58016 21.986679,22.032188 0 0 0 -1.06337,5.35344 21.986679,22.032188 0 0 0 1.01672,5.12415 21.986679,22.032188 0 0 1 0.40382,-1.47536 21.986679,22.032188 0 0 0 -0.40382,1.47536 21.986679,22.032188 0 0 0 -1.01672,5.12211 21.986679,22.032188 0 0 0 1.35154,6.80854 21.986679,22.032188 0 0 1 0.18693,-2.13491 21.986679,22.032188 0 0 0 -0.18693,2.13491 21.986679,22.032188 0 0 0 20.63459,15.22427 21.986679,22.032188 0 0 0 4.96993,-0.62503 21.986679,22.032188 0 0 0 1.95427,-0.53982 21.986679,22.032188 0 0 1 -1.4368,-0.28628 21.986679,22.032188 0 0 0 1.4368,0.28628 21.986679,22.032188 0 0 0 1.50783,-0.57024 21.986679,22.032188 0 0 1 -1.50783,0.57024 21.986679,22.032188 0 0 0 5.85065,1.16485 21.986679,22.032188 0 0 0 4.03439,-0.42207 21.986679,22.032188 0 0 0 0.8625,-0.17045 21.986679,22.032188 0 0 0 0.85433,-0.20303 21.986679,22.032188 0 0 0 10.01696,-5.96026 110.02697,110.48211 0 0 0 -3.64475,-3.79487 110.02697,110.48211 0 0 1 3.64679,3.79487 21.986679,22.032188 0 0 0 2.42712,-2.96285 21.986679,22.032188 0 0 0 0,-0.002 21.986679,22.032188 0 0 0 2.01922,-3.74009 21.986679,22.032188 0 0 1 -0.96394,0.1237 21.986679,22.032188 0 0 0 0.96394,-0.1237 21.986679,22.032188 0 0 0 0.28,-0.71233 21.986679,22.032188 0 0 1 -0.28,0.71233 21.986679,22.032188 0 0 0 1.68435,-0.36718 c -0.3495,-0.41729 -0.7203,-0.81675 -1.09788,-1.2095 a 21.986679,22.032188 0 0 1 -0.24977,0.71229 21.986679,22.032188 0 0 0 0.24977,-0.71229 21.986679,22.032188 0 0 0 0.59055,-2.16534 21.986679,22.032188 0 0 0 0.59259,-4.8299 21.986679,22.032188 0 0 0 -0.0314,-0.42007 66.051739,66.324961 0 0 0 -0.9518,-1.39415 66.051739,66.324961 0 0 1 0.9518,1.39415 21.986679,22.032188 0 0 0 -0.12173,-1.6864 21.986679,22.032188 0 0 0 -2.85533,-8.91907 21.986679,22.032188 0 0 1 -0.21717,1.52814 21.986679,22.032188 0 0 0 0.21717,-1.52814 21.986679,22.032188 0 0 0 0.15826,-2.2282 21.986679,22.032188 0 0 0 -11.83931,-19.48601 21.986679,22.032188 0 0 0 -1.67626,0.93354 21.986679,22.032188 0 0 1 1.67626,-0.93354 21.986679,22.032188 0 0 0 -10.14682,-2.54482 z m 8.60042,56.52188 a 21.986679,22.032188 0 0 1 -0.85433,0.20303 21.986679,22.032188 0 0 1 -0.8625,0.17044 66.051739,66.324961 0 0 1 -0.0157,0.16022 21.986679,22.032188 0 0 1 0.48095,-0.0954 21.986679,22.032188 0 0 1 0.87668,0.0628 21.986679,22.032188 0 0 0 0.37543,-0.50126 z m -18.52607,-53.51434 a 21.986679,22.032188 0 0 1 1.21358,0.0448 21.986679,22.032188 0 0 0 -1.21358,-0.0448 z m 1.58697,0.0711 a 21.986679,22.032188 0 0 1 1.21558,0.12566 21.986679,22.032188 0 0 1 1.22371,0.20696 21.986679,22.032188 0 0 0 -1.22371,-0.20696 21.986679,22.032188 0 0 0 -1.21558,-0.12566 z m 2.75994,0.39573 a 21.986679,22.032188 0 0 1 1.20949,0.28432 21.986679,22.032188 0 0 0 -1.20949,-0.28432 z m 13.51357,0.35107 a 21.986679,22.032188 0 0 0 -1.07354,0.74277 21.986679,22.032188 0 0 1 1.07354,-0.74277 z m -20.04,0.14216 a 21.986679,22.032188 0 0 0 -0.77115,0.48094 21.986679,22.032188 0 0 1 0.77115,-0.48094 z m 9.25189,0.25761 a 21.986679,22.032188 0 0 1 0.37542,0.13391 21.986679,22.032188 0 0 0 -0.37542,-0.13391 z m -10.46138,0.51747 a 21.986679,22.032188 0 0 0 -0.63925,0.4566 21.986679,22.032188 0 0 1 0.63925,-0.4566 z m 12.06052,0.10564 a 21.986679,22.032188 0 0 1 0.2902,0.1237 21.986679,22.032188 0 0 0 -0.2902,-0.1237 z m 7.54518,0.15433 a 21.986679,22.032188 0 0 0 -0.99646,0.84016 21.986679,22.032188 0 0 1 0.99646,-0.84016 z m -20.6549,0.50326 a 21.986679,22.032188 0 0 0 -0.99641,0.81989 66.051739,66.324961 0 0 1 5.40823,1.53823 66.051739,66.324961 0 0 0 -5.40823,-1.53823 21.986679,22.032188 0 0 0 -0.85641,1.12424 21.986679,22.032188 0 0 1 0.85641,-1.12424 21.986679,22.032188 0 0 1 0.99641,-0.81989 z m 14.81233,0.16454 a 21.986679,22.032188 0 0 1 0.29846,0.16847 21.986679,22.032188 0 0 0 -0.29846,-0.16847 z m -18.04713,0.15433 a 66.051739,66.324961 0 0 1 0.37347,0.0793 66.051739,66.324961 0 0 0 -0.37347,-0.0793 z m 22.42447,0.43834 a 21.986679,22.032188 0 0 0 -1.34749,1.37793 21.986679,22.032188 0 0 1 1.34749,-1.37793 z m -3.02376,0.20892 a 21.986679,22.032188 0 0 1 0.41399,0.26783 21.986679,22.032188 0 0 0 -0.41399,-0.26783 z m -18.20747,1.24402 a 21.986679,22.032188 0 0 0 -0.77316,1.1831 21.986679,22.032188 0 0 1 0.77316,-1.1831 z m 21.40983,1.23384 a 21.986679,22.032188 0 0 1 0.1889,0.1724 21.986679,22.032188 0 0 0 -0.1889,-0.1724 z m -19.36218,1.20749 a 110.02697,110.48211 0 0 1 0.85029,0.39978 110.02697,110.48211 0 0 0 -0.85029,-0.39978 z m 20.87406,0.34715 a 21.986679,22.032188 0 0 1 0.22738,0.2639 21.986679,22.032188 0 0 0 -0.22738,-0.2639 z m -17.94164,1.05937 a 110.02697,110.48211 0 0 1 0.78132,0.38956 110.02697,110.48211 0 0 0 -0.78132,-0.38956 z m 19.33579,0.69199 a 21.986679,22.032188 0 0 1 0.17672,0.25958 21.986679,22.032188 0 0 0 -0.17672,-0.25958 z m -7.53501,0.0393 a 66.051739,66.324961 0 0 1 0.76507,0.41803 66.051739,66.324961 0 0 0 -0.76507,-0.41803 z m 1.87309,1.07962 a 66.051739,66.324961 0 0 1 2.16738,1.31502 66.051739,66.324961 0 0 0 -2.16738,-1.31502 z m 0,0 a 21.986679,22.032188 0 0 0 -0.71638,0.14216 21.986679,22.032188 0 0 0 -0.67981,0.11153 21.986679,22.032188 0 0 1 0.67981,-0.11153 21.986679,22.032188 0 0 1 0.71638,-0.14216 z m -19.98317,0.0196 a 66.051739,66.324961 0 0 1 0.56825,0.19086 66.051739,66.324961 0 0 0 -0.56825,-0.19086 z m 9.85461,0.008 a 110.02697,110.48211 0 0 1 2.52859,1.48754 110.02697,110.48211 0 0 1 1.83253,1.07958 110.02697,110.48211 0 0 0 -1.83253,-1.07958 110.02697,110.48211 0 0 0 -2.52859,-1.48754 z m 8.63698,0.24545 a 21.986679,22.032188 0 0 0 -0.51751,0.10329 21.986679,22.032188 0 0 1 0.51751,-0.10329 z m -0.71229,0.14412 a 21.986679,22.032188 0 0 0 -0.62911,0.14805 21.986679,22.032188 0 0 1 0.62911,-0.14805 z m -20.21859,0.11349 a 21.986679,22.032188 0 0 0 -0.11782,0.36522 21.986679,22.032188 0 0 1 0.11782,-0.36522 z m 5.00849,0.39373 a 21.986679,22.032188 0 0 0 -1.33127,0.38564 21.986679,22.032188 0 0 1 1.33127,-0.38564 z m 12.16604,0.12174 a 21.986679,22.032188 0 0 1 0.64738,0.21716 21.986679,22.032188 0 0 0 -0.64738,-0.21716 z m 0.86246,0.29413 a 21.986679,22.032188 0 0 1 0.47082,0.17672 21.986679,22.032188 0 0 0 -0.47082,-0.17672 z m -14.68042,0.075 a 21.986679,22.032188 0 0 0 -1.30893,0.48504 21.986679,22.032188 0 0 0 -1.25618,0.5662 21.986679,22.032188 0 0 1 1.25618,-0.5662 21.986679,22.032188 0 0 1 1.30893,-0.48504 z m 27.8287,0.0589 a 21.986679,22.032188 0 0 1 0.52968,0.23523 21.986679,22.032188 0 0 0 -0.52968,-0.23523 z m -12.49886,0.11152 a 21.986679,22.032188 0 0 1 0.64738,0.26783 21.986679,22.032188 0 0 0 -0.21913,0.97615 21.986679,22.032188 0 0 1 0.21913,-0.97615 21.986679,22.032188 0 0 0 -0.64738,-0.26783 z m -19.04154,0.0994 a 21.986679,22.032188 0 0 0 -0.1237,0.44647 21.986679,22.032188 0 0 1 0.1237,-0.44647 z m 25.6187,0.0671 a 66.051739,66.324961 0 0 1 1.50579,1.0025 66.051739,66.324961 0 0 0 -1.50579,-1.0025 z m 4.69394,0.27176 a 21.986679,22.032188 0 0 1 0.19478,0.42416 21.986679,22.032188 0 0 0 -0.19478,-0.42416 z m -7.34427,0.0353 a 66.051739,66.324961 0 0 1 0.22737,0.50533 66.051739,66.324961 0 0 0 -0.22737,-0.50533 z m 10.34164,0.22542 a 21.986679,22.032188 0 0 1 0.67981,0.37543 21.986679,22.032188 0 0 0 -0.67981,-0.37543 z m -32.50029,0.34715 a 21.986679,22.032188 0 0 0 -1.2014,0.65142 21.986679,22.032188 0 0 0 -0.35933,1.2075 21.986679,22.032188 0 0 1 0.35933,-1.2075 21.986679,22.032188 0 0 1 1.2014,-0.65142 z m 16.63064,0.22306 a 110.02697,110.48211 0 0 1 1.82439,1.13032 21.986679,22.032188 0 0 1 0.1724,-0.99232 21.986679,22.032188 0 0 0 -0.1724,0.99232 110.02697,110.48211 0 0 0 -1.82439,-1.13032 z m 10.37412,0.38132 a 66.051739,66.324961 0 0 1 1.38606,1.00857 66.051739,66.324961 0 0 0 -1.38606,-1.00857 z m 3.04811,0.0157 a 21.986679,22.032188 0 0 1 0.20106,0.49923 21.986679,22.032188 0 0 0 -0.20106,-0.49923 z m 4.16021,0.0118 a 21.986679,22.032188 0 0 1 0.66359,0.44242 21.986679,22.032188 0 0 0 -0.66359,-0.44242 z m -23.29714,0.45864 a 66.051739,66.324961 0 0 1 2.08821,1.09384 66.051739,66.324961 0 0 0 -2.08821,-1.09384 z m -13.20506,0.22934 a 21.986679,22.032188 0 0 0 -0.44038,0.30238 21.986679,22.032188 0 0 1 0.44038,-0.30238 z m 38.12568,0.44442 a 21.986679,22.032188 0 0 1 0.6433,0.51138 21.986679,22.032188 0 0 0 -0.6433,-0.51138 z m -5.27636,0.20107 a 21.986679,22.032188 0 0 1 0.15434,0.45864 21.986679,22.032188 0 0 0 -0.15434,-0.45864 z m -33.96347,0.13587 a 21.986679,22.032188 0 0 0 -0.35736,0.27411 21.986679,22.032188 0 0 1 0.35736,-0.27411 z m 32.54698,0.075 a 66.051739,66.324961 0 0 1 1.94209,1.54636 66.051739,66.324961 0 0 0 -1.94209,-1.54636 z m -30.79967,0.0589 a 21.986679,22.032188 0 0 0 -0.19478,0.84421 21.986679,22.032188 0 0 1 0.19478,-0.84421 z m 15.25675,0.28 a 66.051739,66.324961 0 0 1 1.5464,0.88885 66.051739,66.324961 0 0 0 -1.5464,-0.88885 z m 10.75768,0.33498 a 21.986679,22.032188 0 0 1 0.33066,0.30435 21.986679,22.032188 0 0 0 -0.33066,-0.30435 z m -28.8312,0.10131 a 21.986679,22.032188 0 0 0 -0.32044,0.27412 21.986679,22.032188 0 0 1 0.32044,-0.27412 z m 41.82117,0.0852 a 21.986679,22.032188 0 0 1 0.59256,0.55807 21.986679,22.032188 0 0 0 -0.59256,-0.55807 z m -39.28852,0.50125 a 21.986679,22.032188 0 0 0 -0.13588,0.81785 21.986679,22.032188 0 0 1 0.13588,-0.81785 z m 17.6717,0.21324 a 66.051739,66.324961 0 0 1 1.89543,1.19328 66.051739,66.324961 0 0 0 -1.89543,-1.19328 z m 9.70239,0.12802 a 21.986679,22.032188 0 0 1 0.34087,0.35108 21.986679,22.032188 0 0 0 -0.34087,-0.35108 z m -30.95997,0.0236 a 21.986679,22.032188 0 0 0 -0.23955,0.22738 21.986679,22.032188 0 0 1 0.23955,-0.22738 z m 44.32537,0.5986 a 21.986679,22.032188 0 0 1 0.46882,0.52155 21.986679,22.032188 0 0 0 -0.46882,-0.52155 z M 277.208,167.4495 a 21.986679,22.032188 0 0 0 -0.12802,1.23998 21.986679,22.032188 0 0 1 0.12802,-1.23998 z m 19.86544,0.22307 a 66.051739,66.324961 0 0 1 0.002,0.002 21.986679,22.032188 0 0 0 -0.0428,0.20499 21.986679,22.032188 0 0 1 0.0404,-0.20696 z m -6.78012,0.0589 a 21.986679,22.032188 0 0 1 1.49566,0.0609 21.986679,22.032188 0 0 0 -1.49566,-0.0609 z m 0,0 a 21.986679,22.032188 0 0 0 -1.6884,0.18692 21.986679,22.032188 0 0 1 1.6884,-0.18692 z m -17.63109,0.0314 a 21.986679,22.032188 0 0 0 -0.92133,1.20345 21.986679,22.032188 0 0 1 0.92133,-1.20345 z m 19.67874,0.0833 a 21.986679,22.032188 0 0 1 1.00655,0.11977 21.986679,22.032188 0 0 0 -1.00655,-0.11977 z m -4.27386,0.16219 a 21.986679,22.032188 0 0 0 -1.20137,0.23955 21.986679,22.032188 0 0 1 1.20137,-0.23955 z m 5.81618,0.0404 a 21.986679,22.032188 0 0 1 1.05932,0.20892 21.986679,22.032188 0 0 0 -1.05932,-0.20892 z m 1.50983,0.30866 a 21.986679,22.032188 0 0 1 1.4774,0.40991 21.986679,22.032188 0 0 1 -0.008,-0.0275 21.986679,22.032188 0 0 1 0.0405,-0.20499 21.986679,22.032188 0 0 0 -0.0393,0.20696 21.986679,22.032188 0 0 0 0.008,0.0275 21.986679,22.032188 0 0 1 4.5316,2.03746 21.986679,22.032188 0 0 1 4.24947,3.27132 21.986679,22.032188 0 0 1 2.41495,2.81068 21.986679,22.032188 0 0 1 1.59305,2.56512 21.986679,22.032188 0 0 1 1.4104,3.2531 21.986679,22.032188 0 0 1 0.85846,3.34845 21.986679,22.032188 0 0 1 0.0833,0.37346 21.986679,22.032188 0 0 1 0.24348,3.02985 21.986679,22.032188 0 0 1 0.0236,0.30631 21.986679,22.032188 0 0 1 -0.0157,0.2639 21.986679,22.032188 0 0 0 0.0118,-0.2639 21.986679,22.032188 0 0 0 -0.0236,-0.30631 21.986679,22.032188 0 0 1 -2.25869,-0.65751 21.986679,22.032188 0 0 1 -0.8645,-0.57838 21.986679,22.032188 0 0 1 -0.30631,-0.20695 21.986679,22.032188 0 0 1 -0.002,0 21.986679,22.032188 0 0 1 -1.40836,-0.94568 h -0.002 a 66.051739,66.324961 0 0 1 0.0157,0.34519 110.02697,110.48211 0 0 0 -0.002,0 66.051739,66.324961 0 0 1 0.0589,1.44492 66.051739,66.324961 0 0 1 0.008,0.13587 21.986679,22.032188 0 0 1 -0.002,0 66.051739,66.324961 0 0 0 -0.008,-0.13391 66.051739,66.324961 0 0 1 0.002,-0.002 66.051739,66.324961 0 0 0 -0.0589,-1.44492 110.02697,110.48211 0 0 0 -1.64583,-1.3211 21.986679,22.032188 0 0 1 -1.07963,1.14251 21.986679,22.032188 0 0 0 1.07963,-1.14251 110.02697,110.48211 0 0 0 -1.03902,-0.81177 21.986679,22.032188 0 0 1 -1.65801,-1.28862 21.986679,22.032188 0 0 1 -6.21391,-15.22635 21.986679,22.032188 0 0 0 -1.4774,-0.40991 z m 9.34932,16.92489 a 110.02697,110.48211 0 0 1 1.03902,0.81176 110.02697,110.48211 0 0 1 1.64583,1.3211 66.051739,66.324961 0 0 0 -0.0157,-0.34519 21.986679,22.032188 0 0 1 -1.57275,-1.05323 21.986679,22.032188 0 0 1 -1.09584,-0.73465 z m -0.71433,-16.92084 a 110.02697,110.48211 0 0 1 2.11865,1.61944 110.02697,110.48211 0 0 0 -2.11865,-1.61944 z m -17.67174,0.004 a 21.986679,22.032188 0 0 0 -1.64175,0.47894 21.986679,22.032188 0 0 0 -1.04311,1.4368 21.986679,22.032188 0 0 0 -0.92537,1.51591 21.986679,22.032188 0 0 0 -0.7732,1.67421 21.986679,22.032188 0 0 1 0.7732,-1.67421 110.02697,110.48211 0 0 0 -2.6869,-1.16889 21.986679,22.032188 0 0 0 -0.67372,0.4099 21.986679,22.032188 0 0 1 0.67372,-0.4099 110.02697,110.48211 0 0 1 2.6869,1.16889 21.986679,22.032188 0 0 1 0.92537,-1.51591 21.986679,22.032188 0 0 1 1.04311,-1.4368 21.986679,22.032188 0 0 1 1.64175,-0.47894 z m 12.0463,0.21716 a 66.051739,66.324961 0 0 1 0.36325,0.25762 66.051739,66.324961 0 0 0 -0.36325,-0.25762 z m 21.05266,0.17868 a 21.986679,22.032188 0 0 1 0.38132,0.5033 21.986679,22.032188 0 0 0 -0.38132,-0.5033 z m -12.48059,0.38957 a 21.986679,22.032188 0 0 1 0.23758,0.34283 21.986679,22.032188 0 0 0 -0.23758,-0.34283 z m -35.50783,0.21088 a 21.986679,22.032188 0 0 0 -0.60068,0.92541 21.986679,22.032188 0 0 1 0.60068,-0.92541 z m 28.3259,0.2211 a 66.051739,66.324961 0 0 1 0.30238,0.22109 66.051739,66.324961 0 0 0 -0.30238,-0.22109 z m 7.99773,0.7955 a 21.986679,22.032188 0 0 1 0.26587,0.43634 21.986679,22.032188 0 0 0 -0.26587,-0.43634 z m -1.12632,0.008 a 110.02697,110.48211 0 0 1 2.08013,1.68031 21.986679,22.032188 0 0 1 0.47891,1.02888 21.986679,22.032188 0 0 0 -0.47891,-1.02888 110.02697,110.48211 0 0 0 -2.08013,-1.68031 z m -36.04964,0.31258 a 21.986679,22.032188 0 0 0 -0.72446,1.33128 21.986679,22.032188 0 0 0 -0.62508,1.39618 21.986679,22.032188 0 0 1 0.62508,-1.39618 21.986679,22.032188 0 0 1 0.72446,-1.33128 z m 8.49694,0.51751 a 21.986679,22.032188 0 0 0 -0.46064,0.30867 21.986679,22.032188 0 0 1 0.46064,-0.30867 z m -0.68185,0.46065 a 21.986679,22.032188 0 0 0 -0.66155,0.48503 21.986679,22.032188 0 0 0 -1.34754,0.99845 21.986679,22.032188 0 0 1 1.34754,-0.99845 21.986679,22.032188 0 0 1 0.66155,-0.48503 z m 42.16412,1.20341 a 21.986679,22.032188 0 0 1 -0.24348,1.09789 21.986679,22.032188 0 0 0 0.24348,-1.09789 z m -11.2731,0.44446 a 21.986679,22.032188 0 0 1 0.42412,1.06945 21.986679,22.032188 0 0 1 0.35304,1.06542 21.986679,22.032188 0 0 0 -0.35304,-1.06541 21.986679,22.032188 0 0 0 -0.42412,-1.06946 z m -33.36279,0.22934 a 21.986679,22.032188 0 0 0 -0.81986,0.72042 21.986679,22.032188 0 0 1 0.81986,-0.72042 z m 5.8953,0.20303 a 21.986679,22.032188 0 0 0 -0.59864,1.69448 21.986679,22.032188 0 0 1 0.59864,-1.69448 z m -12.74846,0.075 a 21.986679,22.032188 0 0 0 -0.38956,1.08572 21.986679,22.032188 0 0 1 0.38956,-1.08572 z m 9.02255,0.0526 a 21.986679,22.032188 0 0 0 0.1076,0.42212 21.986679,22.032188 0 0 1 -0.1076,-0.42212 z m 42.11342,0.52969 a 21.986679,22.032188 0 0 1 -0.44851,1.47332 21.986679,22.032188 0 0 1 -0.55199,1.45096 21.986679,22.032188 0 0 0 0.55199,-1.45096 21.986679,22.032188 0 0 0 0.44851,-1.47332 z m -45.58361,0.33067 a 21.986679,22.032188 0 0 0 -0.71029,0.73462 21.986679,22.032188 0 0 1 0.71029,-0.73462 z m 36.12269,0.5601 a 21.986679,22.032188 0 0 1 -0.0428,0.24741 21.986679,22.032188 0 0 0 0.0428,-0.24741 z m -29.6044,0.41195 a 21.986679,22.032188 0 0 0 -0.44647,1.77166 21.986679,22.032188 0 0 1 0.44647,-1.77166 z m 29.00571,0.0157 a 21.986679,22.032188 0 0 1 0.29218,1.08776 21.986679,22.032188 0 0 1 -0.24348,0.92537 21.986679,22.032188 0 0 0 0.24348,-0.92537 21.986679,22.032188 0 0 0 -0.29218,-1.08776 z m -36.69293,0.2639 a 21.986679,22.032188 0 0 0 -0.66564,0.80972 21.986679,22.032188 0 0 1 0.66564,-0.80972 z m -1.05528,1.32114 a 21.986679,22.032188 0 0 0 -0.6169,0.88885 21.986679,22.032188 0 0 1 0.6169,-0.88885 z m 46.72819,0.20893 a 21.986679,22.032188 0 0 1 -0.62912,1.34144 21.986679,22.032188 0 0 0 0.62912,-1.34144 z m -39.75122,0.0954 a 21.986679,22.032188 0 0 0 0.18458,0.40182 21.986679,22.032188 0 0 1 -0.18458,-0.40182 z m 1.2785,0.0832 a 21.986679,22.032188 0 0 0 -0.29218,1.87918 21.986679,22.032188 0 0 0 1.17498,1.84269 21.986679,22.032188 0 0 1 -1.17498,-1.84269 21.986679,22.032188 0 0 1 0.29218,-1.87918 z m 28.17164,0.0118 a 66.051739,66.324961 0 0 1 0.26979,0.29021 66.051739,66.324961 0 0 0 -0.26979,-0.29021 z m 1.82848,0.13195 a 21.986679,22.032188 0 0 1 0.0236,0.11978 21.986679,22.032188 0 0 0 -0.0236,-0.11978 z m -0.51346,0.0833 a 21.986679,22.032188 0 0 1 -0.28393,0.9051 21.986679,22.032188 0 0 0 0.28393,-0.9051 z m -38.70202,0.79754 a 21.986679,22.032188 0 0 0 -0.58851,1.01468 21.986679,22.032188 0 0 1 0.58851,-1.01468 z m 39.39609,0.22542 a 21.986679,22.032188 0 0 1 0.0275,0.2211 21.986679,22.032188 0 0 0 -0.0275,-0.2211 z m 7.53301,0.16218 a 21.986679,22.032188 0 0 1 -0.74481,1.31302 21.986679,22.032188 0 0 1 -0.6656,0.97407 21.986679,22.032188 0 0 0 0.6656,-0.97407 21.986679,22.032188 0 0 0 0.74481,-1.31302 z m -47.7733,1.08776 a 21.986679,22.032188 0 0 0 -0.72855,1.53014 21.986679,22.032188 0 0 0 -0.64329,2.04557 21.986679,22.032188 0 0 1 0.64329,-2.04557 21.986679,22.032188 0 0 1 0.72855,-1.53014 z m 40.4412,0.70013 a 21.986679,22.032188 0 0 1 0.0196,0.28195 21.986679,22.032188 0 0 0 -0.0196,-0.28195 z m 5.77152,0.70419 a 21.986679,22.032188 0 0 1 -0.72246,0.93554 21.986679,22.032188 0 0 1 -0.77116,0.88477 21.986679,22.032188 0 0 0 0.77116,-0.88477 21.986679,22.032188 0 0 0 0.72246,-0.93554 z m -34.87467,0.33066 a 21.986679,22.032188 0 0 0 0.95381,1.20136 21.986679,22.032188 0 0 1 -0.95381,-1.20136 z m -11.01541,1.56057 a 21.986679,22.032188 0 0 0 0.42821,0.60273 21.986679,22.032188 0 0 1 -0.42821,-0.60273 z m 44.20164,0.13784 a 21.986679,22.032188 0 0 1 -0.81176,0.82394 21.986679,22.032188 0 0 0 0.81176,-0.82394 z m -31.64391,0.13195 a 21.986679,22.032188 0 0 0 0.89493,0.91728 21.986679,22.032188 0 0 1 -0.89493,-0.91728 z m -14.35978,0.40995 a 21.986679,22.032188 0 0 0 -0.40181,2.0273 21.986679,22.032188 0 0 1 0.40181,-2.0273 z m 3.02172,0.99641 a 21.986679,22.032188 0 0 0 0.5256,0.61694 21.986679,22.032188 0 0 1 -0.5256,-0.61694 z m 41.38079,0.0196 a 21.986679,22.032188 0 0 1 -0.24348,0.20892 21.986679,22.032188 0 0 0 0.24348,-0.20892 z m -0.32673,0.0275 a 66.051739,66.324961 0 0 0 -0.37739,0.23955 66.051739,66.324961 0 0 1 0.37739,-0.23955 z m -28.10669,0.0974 a 21.986679,22.032188 0 0 0 0.95785,0.79346 21.986679,22.032188 0 0 1 -0.95785,-0.79346 z m 27.78808,0.41599 a 21.986679,22.032188 0 0 1 -0.26193,0.20892 21.986679,22.032188 0 0 0 0.26193,-0.20892 z m 2.71934,0.59055 a 66.051739,66.324961 0 0 1 0.32477,0.49721 66.051739,66.324961 0 0 0 -0.32477,-0.49721 z m -28.7845,0.34715 a 21.986679,22.032188 0 0 0 1.02684,0.6859 21.986679,22.032188 0 0 1 -1.02684,-0.6859 z m -13.28219,0.0691 a 21.986679,22.032188 0 0 0 0.58442,0.57229 21.986679,22.032188 0 0 1 -0.58442,-0.57229 z m 30.84024,0.78537 a 21.986679,22.032188 0 0 1 -1.17702,1.05729 21.986679,22.032188 0 0 1 -1.26836,0.96598 21.986679,22.032188 0 0 0 1.26836,-0.96598 21.986679,22.032188 0 0 0 1.17702,-1.05729 z m -15.71944,0.31652 a 21.986679,22.032188 0 0 0 1.08571,0.5743 21.986679,22.032188 0 0 1 -1.08571,-0.5743 z m -13.61705,0.30632 a 21.986679,22.032188 0 0 0 0.66968,0.54998 21.986679,22.032188 0 0 1 -0.66968,-0.54998 z m 41.76635,0.0569 a 66.051739,66.324961 0 0 1 0.35932,0.58242 66.051739,66.324961 0 0 0 -0.35932,-0.58242 z m -8.18644,0.28 a 110.02697,110.48211 0 0 1 1.10398,0.97819 110.02697,110.48211 0 0 1 2.40277,2.12674 21.986679,22.032188 0 0 0 0.0236,-0.22934 21.986679,22.032188 0 0 1 -0.0196,0.22934 110.02697,110.48211 0 0 0 -0.002,0 110.02697,110.48211 0 0 0 -2.40278,-2.12674 110.02697,110.48211 0 0 0 -1.10397,-0.97819 z m -18.00047,0.34715 a 21.986679,22.032188 0 0 0 1.14454,0.46269 21.986679,22.032188 0 0 1 -1.14454,-0.46269 z m -13.92348,0.59664 a 21.986679,22.032188 0 0 0 0.69199,0.47286 21.986679,22.032188 0 0 1 -0.69199,-0.47286 z m 30.79763,0.16454 a 66.051739,66.324961 0 0 1 -0.21324,2.29725 66.051739,66.324961 0 0 0 0.21324,-2.29725 z m -14.85698,0.0196 a 21.986679,22.032188 0 0 0 1.26837,0.36325 21.986679,22.032188 0 0 1 -1.26837,-0.36325 z m 12.86416,0.0691 a 21.986679,22.032188 0 0 1 -0.37347,0.11153 21.986679,22.032188 0 0 0 0.37347,-0.11153 z m -3.88622,0.0892 a 21.986679,22.032188 0 0 1 -1.34141,0.85841 21.986679,22.032188 0 0 0 1.34141,-0.85841 z m -6.88159,0.42208 a 21.986679,22.032188 0 0 0 1.41853,0.25172 21.986679,22.032188 0 0 1 -1.41853,-0.25172 z m 7.45183,0.23759 a 21.986679,22.032188 0 0 1 -0.41399,0.0569 21.986679,22.032188 0 0 0 0.41399,-0.0569 z m 10.03522,0.0833 a 21.986679,22.032188 0 0 1 -0.0236,0.31063 21.986679,22.032188 0 0 0 0.0236,-0.31063 z m -15.34201,0.0507 a 21.986679,22.032188 0 0 0 2.16534,0.15433 21.986679,22.032188 0 0 1 -2.16534,-0.15433 z m -18.36777,0.008 a 21.986679,22.032188 0 0 0 0.65951,0.3715 21.986679,22.032188 0 0 1 -0.65951,-0.3715 z m 30.72863,0.0954 a 21.986679,22.032188 0 0 1 -0.17044,0.3876 21.986679,22.032188 0 0 0 0.17044,-0.3876 z m 11.56535,0 a 21.986679,22.032188 0 0 1 -0.66155,0.0526 21.986679,22.032188 0 0 0 0.66155,-0.0526 z m -1.00654,0.073 a 21.986679,22.032188 0 0 1 -0.97006,0.0275 21.986679,22.032188 0 0 0 0.97006,-0.0275 z m -1.37797,0.21913 a 66.051739,66.324961 0 0 1 0.61899,1.17298 66.051739,66.324961 0 0 0 -0.61899,-1.17298 z m -14.02291,0.42821 a 66.051739,66.324961 0 0 0 -0.83611,0.78738 66.051739,66.324961 0 0 1 0.83611,-0.78738 z m -23.96478,0.14805 a 21.986679,22.032188 0 0 0 0.6352,0.28628 21.986679,22.032188 0 0 1 -0.6352,-0.28628 z m 28.13308,0.55403 a 21.986679,22.032188 0 0 1 -0.14608,0.27804 21.986679,22.032188 0 0 0 0.14608,-0.27804 z m -1.35358,0.41804 a 66.051739,66.324961 0 0 1 -0.30238,2.28712 21.986679,22.032188 0 0 1 -0.99645,1.27849 21.986679,22.032188 0 0 0 0.99645,-1.27849 66.051739,66.324961 0 0 0 0.30238,-2.28712 z m 12.15186,0.26193 a 66.051739,66.324961 0 0 1 0.55604,1.13645 66.051739,66.324961 0 0 0 -0.55604,-1.13645 z m -11.49635,0.56216 a 21.986679,22.032188 0 0 1 -0.24544,0.39773 21.986679,22.032188 0 0 0 0.24544,-0.39773 z m -14.86715,0.0314 a 21.986679,22.032188 0 0 1 -3.88218,0.36129 21.986679,22.032188 0 0 0 3.88218,-0.36129 z m 8.94545,0.37542 a 66.051739,66.324961 0 0 0 -0.89494,0.92538 66.051739,66.324961 0 0 1 0.89494,-0.92538 z m -17.83,0.56417 a 21.986679,22.032188 0 0 0 0.38132,0.51746 21.986679,22.032188 0 0 1 -0.38132,-0.51746 z m 1.28254,1.68844 a 21.986679,22.032188 0 0 0 0.51955,0.58646 21.986679,22.032188 0 0 1 -0.51955,-0.58646 z m 14.20964,0.23326 a 66.051739,66.324961 0 0 0 -0.87263,0.99033 66.051739,66.324961 0 0 1 0.87263,-0.99033 z m 5.9217,0.27804 a 21.986679,22.032188 0 0 1 -0.71233,0.77724 21.986679,22.032188 0 0 0 0.71233,-0.77724 z m -18.70672,1.03293 a 21.986679,22.032188 0 0 0 0.61286,0.57838 21.986679,22.032188 0 0 1 -0.61286,-0.57838 z m 17.54183,0.18693 a 21.986679,22.032188 0 0 1 -0.74272,0.69607 21.986679,22.032188 0 0 0 0.74272,-0.69607 z m -1.21153,1.09381 a 21.986679,22.032188 0 0 1 -0.79551,0.63724 21.986679,22.032188 0 0 0 0.79551,-0.63724 z m -5.80397,0.073 a 66.051739,66.324961 0 0 0 -0.75493,0.93755 66.051739,66.324961 0 0 1 0.75493,-0.93755 z m -8.94141,0.0628 a 21.986679,22.032188 0 0 0 0.67782,0.53369 21.986679,22.032188 0 0 1 -0.67782,-0.53369 z m 13.41006,0.89695 a 21.986679,22.032188 0 0 1 -0.78942,0.53576 21.986679,22.032188 0 0 0 0.78942,-0.53576 z m -11.70131,0.35932 a 21.986679,22.032188 0 0 0 0.72042,0.47082 21.986679,22.032188 0 0 1 -0.72042,-0.47082 z m 10.34368,0.53777 a 21.986679,22.032188 0 0 1 -0.8645,0.49521 21.986679,22.032188 0 0 0 0.8645,-0.49521 z m -8.41577,0.60477 a 21.986679,22.032188 0 0 0 0.63112,0.33694 21.986679,22.032188 0 0 1 -0.63112,-0.33694 z m 6.99319,0.19282 a 21.986679,22.032188 0 0 1 -0.95584,0.45051 21.986679,22.032188 0 0 0 0.95584,-0.45051 z" />
    <path
       id="path451"
       style="fill:#003366;fill-opacity:0.980392;fill-rule:nonzero;stroke:none;stroke-width:0.264583"
       d="m 238.34972,146.48102 a 110.02697,110.48211 0 0 0 -57.05562,16.23894 110.02697,110.48211 0 0 0 -45.13105,53.86547 c 3.94053,-3.17307 8.02585,-6.39636 12.40955,-9.59079 8.50626,-6.19855 17.67434,-12.03385 26.96824,-16.25521 5.01894,-2.27966 10.05995,-4.10806 15.04775,-5.20128 -0.4939,1.28678 -1.36284,3.45111 -2.11664,7.32401 -0.21559,1.10716 -0.355,2.40851 -0.49921,3.69345 a 66.051739,66.324961 0 0 1 0.27175,-0.0314 66.051739,66.324961 0 0 0 -0.29217,0.18693 c -0.85217,7.84375 -0.0196,18.71013 7.1738,31.11623 a 66.051739,66.324961 0 0 1 -0.54386,-4.8522 66.051739,66.324961 0 0 1 5.88109,-26.88502 66.051739,66.324961 0 0 1 2.87156,-5.42857 66.051739,66.324961 0 0 1 3.96539,-6.33569 66.051739,66.324961 0 0 1 18.22573,-17.03854 66.051739,66.324961 0 0 1 7.26106,-5.20532 66.051739,66.324961 0 0 1 35.59103,-10.94032 66.051739,66.324961 0 0 1 1.64783,0.0691 110.02697,110.48211 0 0 0 -31.67634,-4.73042 z m -61.91799,52.19933 a 66.051739,66.324961 0 0 0 -47.73269,61.82055 110.02697,110.48211 0 0 1 -0.27607,-3.15771 110.02697,110.48211 0 0 1 0.39977,-4.58229 110.02697,110.48211 0 0 0 -1.84065,19.82282 110.02697,110.48211 0 0 0 3.01567,24.14947 110.02697,110.48211 0 0 0 -0.0157,0.0196 110.02697,110.48211 0 0 0 19.59352,42.10121 110.02697,110.48211 0 0 0 14.57086,15.93864 110.02697,110.48211 0 0 0 20.27334,14.2766 110.02697,110.48211 0 0 0 26.53802,10.09813 110.02697,110.48211 0 0 0 25.94948,3.51889 110.02697,110.48211 0 0 0 10.45938,-0.91929 110.02697,110.48211 0 0 0 20.24494,-3.88013 110.02697,110.48211 0 0 0 9.34928,-2.99737 110.02697,110.48211 0 0 0 3.33423,-1.56061 c -1.54691,-0.73021 -3.09547,-1.46236 -4.65129,-2.21808 -3.05247,-1.48275 -6.17228,-3.15952 -9.45279,-5.29663 -0.70385,-0.45856 -1.42148,-0.95596 -2.143,-1.46523 -4.58626,-3.23695 -9.56538,-7.60232 -15.24258,-13.97013 a 44.246433,44.064158 0 0 0 -27.9403,-27.65621 44.246433,44.064158 0 0 0 -13.73474,-2.44333 44.246433,44.064158 0 0 0 -18.44894,4.38747 110.02697,110.48211 0 0 1 3.30784,-9.28232 66.051739,66.324961 0 0 1 -2.09026,-0.83407 66.051739,66.324961 0 0 1 -10.03521,-6.3316 66.051739,66.324961 0 0 1 -24.25904,-35.31097 66.051739,66.324961 0 0 1 -2.74572,-17.89087 66.051739,66.324961 0 0 1 16.76259,-43.71256 66.051739,66.324961 0 0 1 7.39297,-7.4234 66.051739,66.324961 0 0 1 -0.16455,-1.4591 66.051739,66.324961 0 0 1 -0.42008,-3.74013 z m -47.70634,62.88192 a 110.02697,110.48211 0 0 0 0.8828,10.14074 66.051739,66.324961 0 0 1 -0.69607,-6.45338 110.02697,110.48211 0 0 1 -0.20696,-3.50879 66.051739,66.324961 0 0 1 0.0196,-0.17868 z m 1.54435,15.618 a 66.051739,66.324961 0 0 0 1.9827,6.85521 66.051739,66.324961 0 0 1 -1.84061,-6.28699 110.02697,110.48211 0 0 1 -0.0526,-0.22934 66.051739,66.324961 0 0 1 -0.0891,-0.33891 z m 3.57779,13.58254 a 110.02697,110.48211 0 0 0 0.26587,0.81581 110.02697,110.48211 0 0 0 -0.0157,0.0196 110.02697,110.48211 0 0 1 -0.25173,-0.83406 z" />
    <path
       id="path450"
       style="fill:#0000ff;fill-opacity:0.627451;stroke:none;stroke-width:0.264583"
       d="m 188.24873,196.52314 a 66.051739,66.324961 0 0 0 -0.27607,0.0314 c -0.008,0.0542 -0.0157,0.10172 -0.0196,0.15629 a 66.051739,66.324961 0 0 1 0.29611,-0.18888 z" />
    <path
       id="path408"
       style="fill:#003366;fill-opacity:1;stroke:none;stroke-width:0.264583"
       d="m 267.02666,128.23903 a 8.6308138,8.6499253 0 0 1 -1.83453,3.11915 66.051739,66.324961 0 0 1 3.0562,0.86246 66.051739,66.324961 0 0 0 -3.0562,-0.86246 8.6308138,8.6499253 0 0 1 -0.31063,0.31063 c 5.72566,7.59577 13.39387,11.89221 21.85426,15.63427 -2.33452,-4.46987 -5.27342,-8.1141 -8.67959,-11.20819 a 66.051739,66.324961 0 0 0 -2.85942,-1.31506 66.051739,66.324961 0 0 1 2.85942,1.31506 c -3.30223,-2.99961 -7.07095,-5.49165 -11.02963,-7.8557 z m 2.02734,4.23935 a 66.051739,66.324961 0 0 1 2.23026,0.75698 66.051739,66.324961 0 0 0 -2.23026,-0.75698 z m 3.16376,1.09993 a 66.051739,66.324961 0 0 1 2.10043,0.83611 66.051739,66.324961 0 0 0 -2.10043,-0.83611 z" />
    <path
       id="path406"
       style="fill:#003366;fill-opacity:1;stroke:none;stroke-width:0.264583"
       d="m 279.2688,118.73146 a 8.6308138,8.6499253 0 0 1 -3.61835,2.17555 c 2.68909,8.54376 7.97943,14.87619 14.19338,20.83546 -1.23518,-8.88317 -5.43482,-16.03403 -10.57503,-23.01101 z" />
    <path
       id="path403"
       style="fill:#00cccc;fill-opacity:1;stroke:none;stroke-width:0.264583"
       d="m 177.0162,203.87959 a 66.051739,66.324961 0 0 0 -7.39297,7.42339 66.051739,66.324961 0 0 0 -11.677,36.9832 66.051739,66.324961 0 0 0 3.63053,20.42145 66.051739,66.324961 0 0 0 21.0344,31.22588 66.051739,66.324961 0 0 0 12.7789,8.12761 66.051739,66.324961 0 0 0 28.60798,6.55077 66.051739,66.324961 0 0 0 12.54755,-1.42054 66.051739,66.324961 0 0 0 12.24721,-3.79087 66.051739,66.324961 0 0 0 0.48299,4.29618 66.051739,66.324961 0 0 0 24.65276,44.7678 66.051739,66.324961 0 0 0 3.02376,1.90965 66.051739,66.324961 0 0 0 14.69055,7.64257 110.02697,110.48211 0 0 0 0.10956,-0.0526 66.051739,66.324961 0 0 1 -0.0648,0.0668 66.051739,66.324961 0 0 0 7.64261,2.68485 66.051739,66.324961 0 0 1 0.0275,-0.26193 66.051739,66.324961 0 0 0 0.002,0 66.051739,66.324961 0 0 0 0.72651,0.45659 66.051739,66.324961 0 0 0 14.40242,1.62957 66.051739,66.324961 0 0 0 11.98339,-1.35562 66.051739,66.324961 0 0 0 17.61896,-5.80804 c -7.36253,-7.67913 -14.16538,-16.26475 -19.57931,-26.90936 -0.68433,-1.34549 -1.36819,-2.69295 -2.00704,-4.10543 a 110.02697,110.48211 0 0 0 -1.39014,-4.67973 110.02697,110.48211 0 0 0 -0.82799,-2.30938 110.02697,110.48211 0 0 0 -13.3654,-26.12808 110.02697,110.48211 0 0 0 -1.63566,-2.34596 110.02697,110.48211 0 0 0 -15.13093,-16.70981 110.02697,110.48211 0 0 0 -2.05982,-1.82234 110.02697,110.48211 0 0 0 -4.47273,-3.62244 110.02697,110.48211 0 0 0 -2.15517,-1.67827 110.02697,110.48211 0 0 0 -2.16735,-1.49158 110.02697,110.48211 0 0 0 -15.9143,-9.25188 110.02697,110.48211 0 0 0 -2.8675,-1.24606 110.02697,110.48211 0 0 0 -14.2096,-5.07745 110.02697,110.48211 0 0 0 -5.96431,-1.49362 66.051739,66.324961 0 0 1 3.98566,-0.45051 66.051739,66.324961 0 0 1 5.60513,0.24544 66.051739,66.324961 0 0 1 10.52225,1.76553 66.051739,66.324961 0 0 1 6.9465,2.22012 66.051739,66.324961 0 0 1 15.91226,8.61873 66.051739,66.324961 0 0 1 0.10368,-0.10368 66.051739,66.324961 0 0 1 -0.0196,0.16454 h 0.002 a 66.051739,66.324961 0 0 1 2.31548,1.7676 66.051739,66.324961 0 0 1 7.99573,7.6588 66.051739,66.324961 0 0 0 0.0353,-0.0157 66.051739,66.324961 0 0 0 0.002,0.002 66.051739,66.324961 0 0 0 0.14412,0.23129 66.051739,66.324961 0 0 1 0.67172,0.79551 66.051739,66.324961 0 0 1 -0.1237,0.0793 66.051739,66.324961 0 0 0 4.45851,5.60309 66.051739,66.324961 0 0 0 11.80687,10.39238 66.051739,66.324961 0 0 0 23.16315,10.40455 66.051739,66.324961 0 0 0 2.91419,0.32871 66.051739,66.324961 0 0 0 4.39156,0.49716 66.051739,66.324961 0 0 0 6.79837,0.76916 66.051739,66.324961 0 0 0 29.17819,-6.8958 66.051739,66.324961 0 0 0 2.9142,-1.83862 66.051739,66.324961 0 0 0 4.65942,-2.93851 110.02697,110.48211 0 0 0 -7.38689,-9.84447 110.02697,110.48211 0 0 0 -23.27683,-20.72794 110.02697,110.48211 0 0 0 -0.0275,-0.0196 21.986679,22.032188 0 0 1 -0.004,0 110.02697,110.48211 0 0 0 -0.93959,-0.64333 110.02697,110.48211 0 0 0 -4.85828,-2.94662 110.02697,110.48211 0 0 0 -1.96444,-1.15067 110.02697,110.48211 0 0 0 -9.2174,-4.46864 110.02697,110.48211 0 0 0 -12.43595,-4.52751 110.02697,110.48211 0 0 0 -3.97348,-1.14863 110.02697,110.48211 0 0 0 -5.11401,-1.14658 66.051739,66.324961 0 0 0 -0.0236,0.008 66.051739,66.324961 0 0 0 0,0.002 66.051739,66.324961 0 0 0 -0.002,0 66.051739,66.324961 0 0 0 -4.08308,1.23585 66.051739,66.324961 0 0 1 4.08512,-1.23789 21.986679,22.032188 0 0 1 -0.002,-0.0157 110.02697,110.48211 0 0 0 -22.07138,-2.28507 110.02697,110.48211 0 0 0 -3.42558,0.30043 66.051739,66.324961 0 0 1 0,0.002 110.02697,110.48211 0 0 0 -5.49753,0.48503 110.02697,110.48211 0 0 0 -0.70216,0.0609 66.051739,66.324961 0 0 0 -1.06746,0.67376 66.051739,66.324961 0 0 1 -0.0648,-0.57433 110.02697,110.48211 0 0 0 -16.7382,2.99127 110.02697,110.48211 0 0 0 -6.05969,1.63162 110.02697,110.48211 0 0 0 -6.18348,2.08213 66.051739,66.324961 0 0 1 -12.22691,1.38405 66.051739,66.324961 0 0 1 -5.597,-0.32084 110.02697,110.48211 0 0 0 -0.90507,-0.15001 110.02697,110.48211 0 0 0 -1.61744,-0.25173 110.02697,110.48211 0 0 0 -3.77461,-0.52764 66.051739,66.324961 0 0 1 -20.05622,-7.39705 66.051739,66.324961 0 0 1 -13.31871,-9.92765 66.051739,66.324961 0 0 1 -19.17953,-33.47031 z m 114.25123,57.54264 a 66.051739,66.324961 0 0 0 -3.28149,2.79242 66.051739,66.324961 0 0 0 0,-0.002 66.051739,66.324961 0 0 1 3.28149,-2.79036 z m 73.53408,48.13451 a 66.051739,66.324961 0 0 0 -18.37998,2.9568 c -2.53154,0.27608 -5.0475,0.45809 -7.55126,0.55808 a 110.02697,110.48211 0 0 1 -0.1076,0.2313 110.02697,110.48211 0 0 0 0.10563,-0.2313 c -1.9349,0.0774 -3.86411,0.11388 -5.75734,-0.073 a 110.02697,110.48211 0 0 1 -0.0507,0.0833 h 0.002 a 66.051739,66.324961 0 0 0 -0.0157,0.13392 66.051739,66.324961 0 0 0 0.50938,4.54172 66.051739,66.324961 0 0 1 0.002,0 66.051739,66.324961 0 0 0 0.61086,5.4407 66.051739,66.324961 0 0 0 18.60116,36.70311 66.051739,66.324961 0 0 0 12.78502,9.98856 66.051739,66.324961 0 0 0 33.54539,9.65166 66.051739,66.324961 0 0 0 1.57884,-0.17868 66.051739,66.324961 0 0 0 1.14863,-3.29975 110.02697,110.48211 0 0 0 1.62957,-18.69046 110.02697,110.48211 0 0 0 -4.6229,-31.50792 110.02697,110.48211 0 0 0 -1.62753,-5.04298 110.02697,110.48211 0 0 0 -1.21558,-3.3931 66.051739,66.324961 0 0 0 -3.19219,-1.56462 66.051739,66.324961 0 0 0 -12.83777,-4.4991 66.051739,66.324961 0 0 0 -15.15936,-1.80818 z m -26.98653,5.78979 a 110.02697,110.48211 0 0 1 -0.1076,0.22933 66.051739,66.324961 0 0 0 -0.002,0 110.02697,110.48211 0 0 0 0.10957,-0.22933 z m -44.64807,51.20091 a 66.051739,66.324961 0 0 0 0.34519,0.21913 110.02697,110.48211 0 0 1 -1.7554,1.19529 66.051739,66.324961 0 0 0 1.41041,-1.41445 z" />
    <path
       id="path366"
       style="fill:#0000ff;fill-opacity:0.627451;stroke:none;stroke-width:0.264583"
       d="m 299.35851,370.45398 a 66.051739,66.324961 0 0 0 -0.0275,0.26193 66.051739,66.324961 0 0 0 0.7549,0.19477 66.051739,66.324961 0 0 1 -0.72649,-0.45659 z" />
    <path
       id="path357"
       style="fill:#ff69b4;fill-opacity:0.627451;stroke:none;stroke-width:0.264583"
       d="m 362.34207,228.64796 a 21.986679,22.032188 0 0 0 -12.25534,19.47179 21.986679,22.032188 0 0 0 0.83611,4.2089 21.986679,22.032188 0 0 0 1.6661,5.46505 21.986679,22.032188 0 0 0 2.64833,3.96944 21.986679,22.032188 0 0 0 5.2601,-3.83548 21.986679,22.032188 0 0 0 4.78729,-6.9648 21.986679,22.032188 0 0 0 1.81831,-8.7019 21.986679,22.032188 0 0 0 -4.7609,-13.613 z m -12.25534,19.47179 a 21.986679,22.032188 0 0 0 -7.34627,-16.40947 21.986679,22.032188 0 0 0 -2.47786,-1.91774 21.986679,22.032188 0 0 0 -3.10902,6.12869 21.986679,22.032188 0 0 0 -1.25819,6.33973 21.986679,22.032188 0 0 0 0.95176,4.79132 21.986679,22.032188 0 0 0 0.0891,0.45456 66.051739,66.324961 0 0 1 0.97206,0.20499 66.051739,66.324961 0 0 0 -0.97206,-0.20499 21.986679,22.032188 0 0 0 1.96035,5.17489 21.986679,22.032188 0 0 0 4.66959,5.98256 21.986679,22.032188 0 0 0 2.70107,1.80818 21.986679,22.032188 0 0 0 2.49612,-4.9841 21.986679,22.032188 0 0 0 0.99033,-3.73201 21.986679,22.032188 0 0 0 0.33301,-3.63661 z m 31.83874,-5.83852 a 21.986679,22.032188 0 0 0 -2.08622,0.41603 21.986679,22.032188 0 0 0 -12.80732,7.6507 21.986679,22.032188 0 0 0 -4.23526,9.22754 21.986679,22.032188 0 0 0 -0.85233,4.29008 21.986679,22.032188 0 0 0 -0.0118,0.0507 21.986679,22.032188 0 0 0 0.49921,2.51642 21.986679,22.032188 0 0 0 6.31133,-1.63975 66.051739,66.324961 0 0 1 0.002,0 21.986679,22.032188 0 0 0 13.18684,-18.03495 21.986679,22.032188 0 0 0 0.15826,-2.1897 21.986679,22.032188 0 0 0 -0.16456,-2.28711 z m -43.34118,4.65537 a 21.986679,22.032188 0 0 0 0.19085,0.95789 21.986679,22.032188 0 0 1 -0.19085,-0.95789 z m -0.75694,0.70216 a 66.051739,66.324961 0 0 1 0.1402,0.0852 66.051739,66.324961 0 0 0 -0.002,0 66.051739,66.324961 0 0 0 -0.13784,-0.0852 z m 0.14216,0.0852 a 66.051739,66.324961 0 0 1 0.59259,0.35499 66.051739,66.324961 0 0 0 -0.59259,-0.35499 z m 0.70216,0.14805 a 66.051739,66.324961 0 0 1 0.002,0 110.02697,110.48211 0 0 1 0.0275,0.28824 l -0.002,0.002 a 110.02697,110.48211 0 0 0 -0.0275,-0.29021 z" />
    <path
       id="path317"
       style="fill:#0000ff;fill-opacity:0.627451;stroke:none;stroke-width:0.264583"
       d="m 354.0621,265.23336 a 66.051739,66.324961 0 0 1 0.0118,-0.0118 21.986679,22.032188 0 0 1 -0.0393,-0.008 110.02697,110.48211 0 0 1 0.0275,0.0196 z" />
    <path
       id="path313"
       style="fill:#0000ff;fill-opacity:0.627451;stroke:none;stroke-width:0.264583"
       d="m 401.04798,379.32025 a 110.02697,110.48211 0 0 0 0.77929,-3.25714 66.051739,66.324961 0 0 1 -1.14863,3.29975 66.051739,66.324961 0 0 0 0.36954,-0.0428 z" />
    <path
       id="path266"
       style="fill:#0000ff;fill-opacity:0.627451;stroke:none;stroke-width:0.264583"
       d="m 283.80546,247.73619 a 110.02697,110.48211 0 0 0 -1.1324,0.0994 66.051739,66.324961 0 0 0 0.0648,0.57437 66.051739,66.324961 0 0 1 1.06746,-0.67377 z" />
    <path
       id="path246"
       style="fill:#0000ff;fill-opacity:0.627451;stroke:none;stroke-width:0.264583"
       d="m 315.50416,249.18924 a 66.051739,66.324961 0 0 1 0.0236,-0.008 110.02697,110.48211 0 0 0 -0.0236,-0.008 21.986679,22.032188 0 0 0 0.002,0.0157 z" />
    <path
       id="path230"
       style="fill:#003366;fill-opacity:1;stroke:none;stroke-width:0.264583"
       d="m 323.81641,190.14889 a 21.986679,22.032188 0 0 1 -1.68435,0.36718 21.986679,22.032188 0 0 1 -2.02126,3.74214 21.986679,22.032188 0 0 1 -2.42712,2.96285 21.986679,22.032188 0 0 1 -10.01696,5.96025 21.986679,22.032188 0 0 1 -0.37542,0.50126 21.986679,22.032188 0 0 1 19.02123,12.63076 66.051739,66.324961 0 0 0 -0.44442,-3.40323 66.051739,66.324961 0 0 1 0.44442,3.40323 21.986679,22.032188 0 0 1 2.08822,9.33914 21.986679,22.032188 0 0 1 -0.3715,3.81927 21.986679,22.032188 0 0 1 1.44488,-0.77521 c 1.07531,-4.0327 1.67379,-8.60749 1.74731,-13.29032 0.14373,-9.155 -1.88664,-18.67125 -7.40518,-25.25748 z m 0.33891,14.82654 a 66.051739,66.324961 0 0 1 0.84016,3.34645 66.051739,66.324961 0 0 0 -0.84016,-3.34645 z m 1.05932,4.37534 a 66.051739,66.324961 0 0 1 0.47286,2.4839 66.051739,66.324961 0 0 0 -0.47286,-2.4839 z" />
    <path
       id="path172"
       style="fill:#0000ff;fill-opacity:0.627451;stroke:none;stroke-width:0.264583"
       d="m 333.06221,313.08175 a 110.02697,110.48211 0 0 0 0.0507,-0.0833 c -0.0118,-10e-4 -0.0275,-0.003 -0.0405,-0.004 a 66.051739,66.324961 0 0 0 -0.0118,0.0872 z" />
    <path
       id="path155"
       style="fill:#0000ff;fill-opacity:0.627451;stroke:none;stroke-width:0.264583"
       d="m 313.21504,417.28969 a 110.02697,110.48211 0 0 0 0.71024,-1.39619 66.051739,66.324961 0 0 1 -2.05774,-0.72242 66.051739,66.324961 0 0 0 1.3475,2.11861 z" />
    <path
       id="path132"
       style="fill:#0000ff;fill-opacity:0.627451;stroke:none;stroke-width:0.264583"
       d="m 291.75651,367.96189 a 110.02697,110.48211 0 0 1 -0.11349,0.055 66.051739,66.324961 0 0 0 0.0448,0.0157 66.051739,66.324961 0 0 0 0.0691,-0.0691 z" />
    <path
       id="path129"
       style="fill:#0000ff;fill-opacity:0.627451;stroke:none;stroke-width:0.264583"
       d="m 293.16691,366.54744 a 66.051739,66.324961 0 0 1 -1.4104,1.41445 110.02697,110.48211 0 0 0 1.75744,-1.19528 66.051739,66.324961 0 0 1 -0.34716,-0.21913 z" />
    <path
       id="path118"
       style="fill:#0000ff;fill-opacity:0.627451;stroke:none;stroke-width:0.264583"
       d="m 293.89342,278.60894 a 66.051739,66.324961 0 0 0 0.54794,0.87464 66.051739,66.324961 0 0 0 0.1237,-0.0793 66.051739,66.324961 0 0 0 -0.67172,-0.79551 z" />
    <path
       id="path115"
       style="fill:#0000ff;fill-opacity:0.627451;stroke:none;stroke-width:0.264583"
       d="m 293.71081,278.39177 a 66.051739,66.324961 0 0 1 0.18261,0.21717 66.051739,66.324961 0 0 1 -0.14412,-0.23131 66.051739,66.324961 0 0 1 -0.0393,0.0157 z" />
    <path
       id="path109"
       style="fill:#0000ff;fill-opacity:0.627451;stroke:none;stroke-width:0.264583"
       d="m 283.31435,268.9045 a 66.051739,66.324961 0 0 1 0.0852,0.0609 66.051739,66.324961 0 0 0 0.0196,-0.16455 66.051739,66.324961 0 0 0 -0.10368,0.10329 z" />
    <path
       id="path5"
       style="fill:#003366;fill-opacity:1;stroke:none;stroke-width:0.264583"
       d="m 296.89385,116.82185 a 8.6308138,8.6499253 0 0 1 -2.72137,0.49724 8.6308138,8.6499253 0 0 1 -3.39918,-0.91324 c -1.7208,8.88691 -0.0829,16.94253 2.67671,25.03428 3.55521,-7.95832 3.91368,-16.10579 3.44384,-24.61828 z" />
  </g>
</svg>
