<?xml version="1.0" encoding="utf-8"?>
<!-- Generator: Adobe Illustrator 27.5.0, SVG Export Plug-In . SVG Version: 6.00 Build 0)  -->
<svg version="1.1" xmlns="http://www.w3.org/2000/svg" xmlns:xlink="http://www.w3.org/1999/xlink" x="0px" y="0px"
	 viewBox="0 0 500 500" style="enable-background:new 0 0 500 500;" xml:space="preserve">
<g id="Background_complete">
	<g>
		<g>
			<g>
				<g>
					<g>
						<path style="fill:#E0E0E0;" d="M443.92,345.062H263.174c-3.232,0-5.862-2.63-5.862-5.862V75.926
							c0-3.232,2.63-5.862,5.862-5.862H443.92c3.232,0,5.862,2.629,5.862,5.862v263.273
							C449.783,342.432,447.153,345.062,443.92,345.062z M263.174,70.314c-3.095,0-5.612,2.518-5.612,5.612v263.273
							c0,3.095,2.518,5.612,5.612,5.612H443.92c3.095,0,5.612-2.517,5.612-5.612V75.926c0-3.094-2.518-5.612-5.612-5.612H263.174z"
							/>
					</g>
				</g>
				<g>
					<g>
						<path style="fill:#E0E0E0;" d="M235.493,345.062H54.746c-3.232,0-5.862-2.63-5.862-5.862V75.926
							c0-3.232,2.629-5.862,5.862-5.862h180.747c3.232,0,5.862,2.629,5.862,5.862v263.273
							C241.355,342.432,238.725,345.062,235.493,345.062z M54.746,70.314c-3.094,0-5.612,2.518-5.612,5.612v263.273
							c0,3.095,2.518,5.612,5.612,5.612h180.747c3.095,0,5.612-2.517,5.612-5.612V75.926c0-3.094-2.518-5.612-5.612-5.612H54.746z"
							/>
					</g>
				</g>
			</g>
			<g>
				<g>
					<rect x="0" y="406.131" style="fill:#E0E0E0;" width="500" height="0.25"/>
				</g>
			</g>
		</g>
		<rect x="51.672" y="420.396" style="fill:#E0E0E0;" width="16.06" height="0.25"/>
		<rect x="170.352" y="417.686" style="fill:#E0E0E0;" width="53.53" height="0.25"/>
		<rect x="68.732" y="429.686" style="fill:#E0E0E0;" width="36.25" height="0.25"/>
		<rect x="378.352" y="417.556" style="fill:#E0E0E0;" width="43.19" height="0.25"/>
		<rect x="430.452" y="417.556" style="fill:#E0E0E0;" width="6.33" height="0.25"/>
		<rect x="316.212" y="423.786" style="fill:#E0E0E0;" width="53.89" height="0.25"/>
	</g>
	<g>
		<path style="fill:#F5F5F5;" d="M127.257,54.366L127.257,54.366c0.732,0.129,0.72,1.184-0.015,1.296l0,0
			c-3.062,0.469-5.484,2.837-6.022,5.888l0,0c-0.129,0.732-1.184,0.72-1.297-0.015l0,0c-0.469-3.062-2.837-5.484-5.888-6.022l0,0
			c-0.732-0.129-0.72-1.184,0.015-1.297v0c3.062-0.469,5.484-2.837,6.022-5.888l0,0c0.129-0.732,1.184-0.72,1.297,0.015l0,0
			C121.838,51.406,124.206,53.828,127.257,54.366z"/>
		<g>
			<path style="fill:#E0E0E0;" d="M123.242,54.462l1.844,0.325l-1.851,0.284c-1.168,0.179-2.093,1.083-2.298,2.247l-0.325,1.844
				l-0.284-1.851c-0.179-1.169-1.083-2.093-2.247-2.298l-1.844-0.325l1.851-0.284c1.169-0.179,2.093-1.083,2.298-2.247l0.325-1.844
				l0.284,1.851C121.174,53.332,122.078,54.257,123.242,54.462z"/>
		</g>
	</g>
	<g>
		<path style="fill:#F5F5F5;" d="M446.488,149.16L446.488,149.16c0.732,0.129,0.72,1.184-0.015,1.297l0,0
			c-3.062,0.469-5.484,2.837-6.022,5.888v0c-0.129,0.732-1.184,0.72-1.297-0.015l0,0c-0.469-3.062-2.837-5.484-5.888-6.022l0,0
			c-0.732-0.129-0.72-1.184,0.014-1.297h0c3.062-0.469,5.484-2.837,6.022-5.888l0,0c0.129-0.732,1.184-0.72,1.297,0.015l0,0
			C441.069,146.199,443.437,148.622,446.488,149.16z"/>
		<g>
			<path style="fill:#E0E0E0;" d="M442.474,149.256l1.844,0.325l-1.851,0.284c-1.169,0.179-2.093,1.083-2.298,2.247l-0.325,1.844
				l-0.283-1.851c-0.179-1.169-1.083-2.093-2.247-2.298l-1.844-0.325l1.851-0.284c1.168-0.179,2.093-1.083,2.298-2.247l0.325-1.844
				l0.284,1.851C440.406,148.126,441.309,149.05,442.474,149.256z"/>
		</g>
	</g>
	<g>
		<path style="fill:#F5F5F5;" d="M60.847,394.056L60.847,394.056c0.732,0.129,0.72,1.184-0.015,1.297l0,0
			c-3.062,0.469-5.484,2.837-6.022,5.888l0,0c-0.129,0.732-1.184,0.72-1.296-0.015l0,0c-0.469-3.062-2.837-5.484-5.888-6.022l0,0
			c-0.732-0.129-0.72-1.184,0.015-1.297l0,0c3.062-0.469,5.484-2.837,6.022-5.888l0,0c0.129-0.732,1.184-0.72,1.297,0.014v0
			C55.429,391.095,57.797,393.518,60.847,394.056z"/>
		<g>
			<path style="fill:#E0E0E0;" d="M56.833,394.152l1.844,0.325l-1.851,0.284c-1.168,0.179-2.093,1.083-2.298,2.247l-0.325,1.844
				L53.919,397c-0.179-1.168-1.083-2.093-2.247-2.298l-1.844-0.325l1.851-0.284c1.169-0.179,2.093-1.083,2.298-2.247l0.325-1.844
				l0.284,1.851C54.765,393.022,55.669,393.947,56.833,394.152z"/>
		</g>
	</g>
	<g>
		<path style="fill:#F5F5F5;" d="M72.291,118.241L72.291,118.241c0.489,0.086,0.481,0.79-0.01,0.865l0,0
			c-2.044,0.313-3.66,1.894-4.019,3.93l0,0c-0.086,0.489-0.79,0.481-0.865-0.01l0,0c-0.313-2.043-1.894-3.66-3.929-4.019h0
			c-0.489-0.086-0.481-0.79,0.01-0.865l0,0c2.043-0.313,3.66-1.894,4.019-3.929l0,0c0.086-0.489,0.79-0.481,0.865,0.01l0,0
			C68.675,116.265,70.255,117.882,72.291,118.241z"/>
		<g>
			<path style="fill:#E0E0E0;" d="M69.612,118.305l1.231,0.217l-1.235,0.189c-0.78,0.119-1.397,0.723-1.534,1.5l-0.217,1.231
				l-0.189-1.235c-0.12-0.78-0.723-1.397-1.5-1.534l-1.231-0.217l1.235-0.189c0.78-0.119,1.397-0.723,1.534-1.5l0.217-1.231
				l0.189,1.235C68.232,117.551,68.835,118.168,69.612,118.305z"/>
		</g>
	</g>
	<g>
		<path style="fill:#F5F5F5;" d="M36.56,380.143L36.56,380.143c0.489,0.086,0.481,0.79-0.01,0.865l0,0
			c-2.043,0.313-3.66,1.894-4.019,3.93l0,0c-0.086,0.489-0.79,0.481-0.865-0.01l0,0c-0.313-2.043-1.894-3.66-3.93-4.019l0,0
			c-0.489-0.086-0.481-0.79,0.01-0.865l0,0c2.043-0.313,3.66-1.894,4.019-3.929l0,0c0.086-0.489,0.79-0.481,0.865,0.01l0,0
			C32.943,378.168,34.524,379.784,36.56,380.143z"/>
		<g>
			<path style="fill:#E0E0E0;" d="M33.881,380.207l1.231,0.217l-1.235,0.189c-0.78,0.119-1.397,0.723-1.534,1.5l-0.217,1.231
				l-0.189-1.235c-0.119-0.78-0.723-1.397-1.5-1.534l-1.231-0.217l1.235-0.189c0.78-0.12,1.397-0.723,1.534-1.5l0.217-1.231
				l0.189,1.235C32.5,379.454,33.104,380.07,33.881,380.207z"/>
		</g>
	</g>
	<g>
		<path style="fill:#F5F5F5;" d="M441.582,78.273L441.582,78.273c0.489,0.086,0.481,0.79-0.01,0.865l0,0
			c-2.044,0.313-3.66,1.894-4.019,3.929l0,0c-0.086,0.489-0.79,0.481-0.865-0.01l0,0c-0.313-2.043-1.894-3.66-3.929-4.019l0,0
			c-0.489-0.086-0.481-0.79,0.01-0.865l0,0c2.043-0.313,3.66-1.894,4.019-3.93l0,0c0.086-0.489,0.79-0.481,0.865,0.01v0
			C437.966,76.298,439.546,77.914,441.582,78.273z"/>
		<g>
			<path style="fill:#E0E0E0;" d="M438.903,78.337l1.231,0.217l-1.235,0.189c-0.78,0.119-1.397,0.723-1.534,1.5l-0.217,1.231
				l-0.189-1.235c-0.119-0.78-0.723-1.397-1.5-1.534l-1.231-0.217l1.235-0.189c0.78-0.119,1.397-0.723,1.534-1.5l0.217-1.231
				l0.189,1.235C437.523,77.584,438.126,78.201,438.903,78.337z"/>
		</g>
	</g>
	<g>
		<path style="fill:#F5F5F5;" d="M86.191,69.358L86.191,69.358c1.22,0.215,1.201,1.973-0.024,2.161l0,0
			c-5.103,0.782-9.14,4.729-10.037,9.813l0,0c-0.215,1.22-1.973,1.201-2.161-0.024l0,0c-0.782-5.103-4.729-9.14-9.813-10.037h0
			c-1.22-0.215-1.201-1.973,0.024-2.161v0c5.103-0.782,9.14-4.729,10.037-9.813l0,0c0.215-1.221,1.973-1.201,2.161,0.024l0,0
			C77.159,64.424,81.107,68.461,86.191,69.358z"/>
		<g>
			<path style="fill:#E0E0E0;" d="M79.501,69.518l3.073,0.542l-3.085,0.473c-1.948,0.298-3.488,1.805-3.83,3.745l-0.542,3.073
				l-0.473-3.085c-0.298-1.948-1.805-3.488-3.745-3.83l-3.074-0.542l3.085-0.473c1.948-0.298,3.488-1.805,3.83-3.745l0.542-3.074
				l0.473,3.085C76.054,67.635,77.56,69.176,79.501,69.518z"/>
		</g>
	</g>
	<g>
		<path style="fill:#F5F5F5;" d="M481.424,379.567L481.424,379.567c1.226,0.179,1.259,1.937,0.04,2.161l0,0
			c-5.078,0.932-8.996,4.998-9.742,10.106l0,0c-0.179,1.226-1.937,1.259-2.161,0.04l0,0c-0.932-5.078-4.998-8.996-10.106-9.742l0,0
			c-1.226-0.179-1.259-1.937-0.04-2.161h0c5.078-0.932,8.996-4.998,9.742-10.106l0,0c0.179-1.226,1.937-1.259,2.161-0.04l0,0
			C472.25,374.903,476.316,378.821,481.424,379.567z"/>
		<g>
			<path style="fill:#E0E0E0;" d="M474.741,379.925l3.088,0.451l-3.069,0.564c-1.938,0.356-3.433,1.907-3.718,3.857l-0.451,3.088
				l-0.564-3.07c-0.356-1.938-1.907-3.433-3.857-3.718l-3.088-0.451l3.069-0.564c1.938-0.356,3.433-1.907,3.718-3.857l0.451-3.088
				l0.564,3.069C471.24,378.145,472.792,379.64,474.741,379.925z"/>
		</g>
	</g>
	<g>
		<path style="fill:#F5F5F5;" d="M380.996,42.769L380.996,42.769c1.22,0.215,1.201,1.973-0.024,2.161l0,0
			c-5.103,0.782-9.14,4.729-10.037,9.813l0,0c-0.215,1.22-1.973,1.201-2.161-0.024l0,0c-0.782-5.103-4.729-9.14-9.813-10.037l0,0
			c-1.22-0.215-1.201-1.973,0.024-2.161l0,0c5.103-0.782,9.14-4.729,10.037-9.813l0,0c0.215-1.221,1.973-1.201,2.161,0.024l0,0
			C371.965,37.835,375.912,41.873,380.996,42.769z"/>
		<g>
			<path style="fill:#E0E0E0;" d="M374.306,42.929l3.074,0.542l-3.085,0.472c-1.948,0.298-3.488,1.805-3.83,3.745l-0.542,3.073
				l-0.473-3.085c-0.298-1.948-1.805-3.488-3.745-3.83l-3.073-0.542l3.085-0.472c1.948-0.298,3.488-1.805,3.831-3.745l0.542-3.073
				l0.473,3.085C370.859,41.046,372.366,42.587,374.306,42.929z"/>
		</g>
	</g>
</g>
<g id="Background_simple" style="display:none;">
	<g style="display:inline;">
		<path style="fill:#407BFF;" d="M398.95,36.076c-4.519,3.228-8.277,8.074-10.863,14.531c-3.048,7.61-5.077,18.524,0.58,29.925
			c10.445,21.048,24.144,16.759,26.559,32.506c2.735,17.836,11.598,36.802,27.252,37.515c29.732,1.353,40.294-70.388,19.862-100.735
			C449.62,30.925,422.943,18.934,398.95,36.076z"/>
		<path style="opacity:0.9;fill:#FFFFFF;" d="M398.95,36.076c-4.519,3.228-8.277,8.074-10.863,14.531
			c-3.048,7.61-5.077,18.524,0.58,29.925c10.445,21.048,24.144,16.759,26.559,32.506c2.735,17.836,11.598,36.802,27.252,37.515
			c29.732,1.353,40.294-70.388,19.862-100.735C449.62,30.925,422.943,18.934,398.95,36.076z"/>
	</g>
</g>
<g id="Shadow">
	<g>
		<g>
			<ellipse style="fill:#F5F5F5;" cx="250" cy="451.718" rx="193.333" ry="17.81"/>
		</g>
	</g>
</g>
<g id="Night">
	<g>
		<path style="fill:#263238;" d="M468.348,206.427c-10.306-12.678-25.672-20.297-36.654-32.395
			c-12.358-13.612-18.208-31.735-27.125-47.814c-27.862-50.241-86.034-78.484-143.372-82.071
			C209.758,40.93,156.378,56.09,117.741,90.2c-16.552,14.612-30.145,32.317-41.89,51.013
			c-29.962,47.695-48.524,104.331-42.312,160.313c6.212,55.982,40.187,110.38,92.12,132.187
			c11.379,4.778,23.369,7.967,35.462,10.428l177.992-1.971c40.779-7.072,74.061-17.231,99.215-50.098
			c25.155-32.867,39.234-73.398,43.968-114.515C485.136,252.887,484.013,225.696,468.348,206.427z"/>
	</g>
	<g style="opacity:0.1;">
		<path style="fill:#FFFFFF;" d="M357.666,313.551c48.975-18.457,96.808-51.382,116.182-99.029c-1.595-2.821-3.415-5.53-5.5-8.095
			c-10.306-12.678-25.672-20.297-36.655-32.394c-11.394-12.55-17.26-28.931-25.093-44.012c-6.283,0.723-12.545,1.812-18.729,3.022
			c-89.554,17.525-172.147,59.435-257.948,90.503c-10.474,3.792-21.419,7.48-32.504,6.384c-11.085-1.096-22.357-8.335-24.514-19.263
			c-3.141-15.914,13.09-28.572,27.851-35.299c42.567-19.398,89.9-25.432,134.268-40.257c39.656-13.25,79.338-36.418,98.74-72.576
			c-14.09-6.609-29.103-11.5-44.429-14.632c-2.353,14.527-16.445,27.165-30.273,34.783c-30.082,16.574-64.004,24.509-97.158,33.48
			c-33.154,8.971-66.751,19.534-94.112,40.295c-0.555,0.421-1.102,0.855-1.65,1.286c-17.698,32.26-29.926,67.839-33.017,104.105
			c2.963,1.691,6.322,2.861,9.626,3.675c29.521,7.276,59.75-5.479,88.54-15.258c40.494-13.755,82.725-21.968,123.065-36.166
			c46.447-16.347,92.968-40.984,141.875-35.279c8.981,1.048,18.519,3.529,24.27,10.506c9.052,10.981,4.663,27.795-3.147,39.693
			c-16.075,24.49-43.329,39.217-70.604,49.903c-51,19.98-105.736,29.3-156.413,50.085c-40.829,16.746-80.371,43.275-102.908,80.24
			c11.283,10.149,24.084,18.522,38.229,24.462c2.182,0.916,4.393,1.758,6.616,2.563c3.706-17.817,8.722-35.772,20.71-49.246
			c10.335-11.618,24.809-18.64,39.261-24.38C245.736,341.402,303.808,333.849,357.666,313.551z"/>
	</g>
</g>
<g id="Stars">
	<g>
		<g>
			<path style="fill:#407BFF;" d="M96.361,255.73l3.55,0.474l-3.514,0.689c-2.219,0.435-3.913,2.236-4.212,4.477l-0.474,3.55
				l-0.689-3.514c-0.435-2.219-2.236-3.913-4.477-4.212l-3.55-0.474l3.514-0.689c2.219-0.435,3.913-2.236,4.213-4.477l0.474-3.55
				l0.689,3.514C92.319,253.736,94.12,255.43,96.361,255.73z"/>
			<path style="opacity:0.2;fill:#407BFF;" d="M104.024,255.226L104.024,255.226c1.41,0.188,1.471,2.205,0.075,2.479l0,0
				c-5.813,1.14-10.253,5.859-11.038,11.731l0,0c-0.188,1.41-2.205,1.471-2.479,0.075l0,0c-1.14-5.813-5.859-10.253-11.731-11.038
				l0,0c-1.41-0.188-1.471-2.205-0.076-2.479l0,0c5.813-1.14,10.253-5.859,11.038-11.731l0,0c0.188-1.41,2.205-1.471,2.479-0.076
				l0,0C93.433,250.001,98.152,254.441,104.024,255.226z"/>
		</g>
		<g>
			<path style="fill:#407BFF;" d="M358.901,165.932l3.502,0.434l-3.456,0.712c-2.182,0.449-3.835,2.24-4.109,4.451l-0.434,3.502
				l-0.712-3.456c-0.449-2.182-2.24-3.835-4.451-4.109l-3.502-0.434l3.456-0.712c2.182-0.45,3.835-2.24,4.109-4.451l0.434-3.502
				l0.712,3.456C354.9,164.005,356.69,165.658,358.901,165.932z"/>
			<path style="opacity:0.2;fill:#407BFF;" d="M366.447,165.364L366.447,165.364c1.391,0.172,1.47,2.159,0.098,2.442l0,0
				c-5.717,1.178-10.048,5.869-10.766,11.662v0c-0.172,1.391-2.159,1.47-2.442,0.098l0,0c-1.178-5.717-5.869-10.048-11.662-10.766
				l0,0c-1.391-0.172-1.47-2.159-0.098-2.442l0,0c5.717-1.178,10.048-5.869,10.766-11.662l0,0c0.172-1.391,2.159-1.47,2.442-0.098
				l0,0C355.963,160.315,360.654,164.646,366.447,165.364z"/>
		</g>
		<g>
			<path style="fill:#407BFF;" d="M234.047,211.647l1.113,0.107l-1.089,0.255c-0.687,0.161-1.195,0.742-1.263,1.445l-0.107,1.113
				l-0.255-1.089c-0.161-0.687-0.742-1.195-1.445-1.263l-1.113-0.107l1.089-0.255c0.687-0.161,1.195-0.742,1.263-1.445l0.107-1.113
				l0.255,1.089C232.763,211.071,233.344,211.579,234.047,211.647z"/>
			<path style="opacity:0.2;fill:#407BFF;" d="M236.432,211.402L236.432,211.402c0.442,0.043,0.484,0.671,0.052,0.773l0,0
				c-1.801,0.422-3.132,1.945-3.31,3.786l0,0c-0.043,0.442-0.671,0.484-0.773,0.052l0,0c-0.422-1.801-1.945-3.132-3.786-3.31l0,0
				c-0.442-0.043-0.484-0.671-0.052-0.773l0,0c1.801-0.422,3.132-1.945,3.31-3.786l0,0c0.043-0.442,0.671-0.484,0.772-0.052l0,0
				C233.068,209.893,234.591,211.224,236.432,211.402z"/>
		</g>
		<g>
			<path style="fill:#407BFF;" d="M411.957,319.386l1.113,0.107l-1.089,0.255c-0.687,0.161-1.195,0.742-1.263,1.445l-0.108,1.113
				l-0.255-1.089c-0.161-0.687-0.742-1.195-1.445-1.263l-1.113-0.107l1.089-0.255c0.687-0.161,1.195-0.742,1.263-1.445l0.107-1.113
				l0.255,1.089C410.673,318.81,411.255,319.318,411.957,319.386z"/>
			<path style="opacity:0.2;fill:#407BFF;" d="M414.343,319.141L414.343,319.141c0.442,0.043,0.484,0.671,0.052,0.773l0,0
				c-1.801,0.422-3.132,1.945-3.31,3.786l0,0c-0.043,0.442-0.671,0.484-0.772,0.052l0,0c-0.422-1.801-1.945-3.132-3.786-3.31l0,0
				c-0.442-0.043-0.484-0.671-0.052-0.772l0,0c1.801-0.422,3.132-1.945,3.31-3.786l0,0c0.043-0.442,0.671-0.484,0.772-0.052l0,0
				C410.978,317.632,412.502,318.964,414.343,319.141z"/>
		</g>
		<g>
			<path style="fill:#407BFF;" d="M296.217,319.696l1.107,0.156l-1.099,0.208c-0.694,0.131-1.227,0.69-1.325,1.389l-0.156,1.107
				l-0.208-1.099c-0.131-0.694-0.69-1.227-1.389-1.325l-1.107-0.156l1.099-0.208c0.694-0.131,1.227-0.69,1.325-1.389l0.156-1.107
				l0.208,1.099C294.96,319.065,295.518,319.598,296.217,319.696z"/>
			<path style="opacity:0.2;fill:#407BFF;" d="M298.611,319.555L298.611,319.555c0.44,0.062,0.455,0.692,0.018,0.774l0,0
				c-1.817,0.344-3.214,1.807-3.471,3.639l0,0c-0.062,0.44-0.692,0.455-0.774,0.018l0,0c-0.344-1.817-1.807-3.214-3.639-3.471l0,0
				c-0.44-0.062-0.454-0.692-0.018-0.774l0,0c1.817-0.344,3.214-1.807,3.471-3.639l0,0c0.062-0.44,0.691-0.454,0.774-0.018l0,0
				C295.315,317.901,296.779,319.297,298.611,319.555z"/>
		</g>
		<g>
			<path style="fill:#407BFF;" d="M323.877,137.252l1.097,0.215l-1.108,0.148c-0.7,0.093-1.262,0.623-1.398,1.315l-0.215,1.097
				l-0.148-1.108c-0.094-0.7-0.623-1.262-1.315-1.398l-1.097-0.215l1.108-0.148c0.7-0.094,1.262-0.623,1.398-1.315l0.215-1.097
				l0.148,1.108C322.655,136.554,323.184,137.117,323.877,137.252z"/>
			<path style="opacity:0.2;fill:#407BFF;" d="M326.274,137.241L326.274,137.241c0.436,0.085,0.417,0.715-0.023,0.774l0,0
				c-1.833,0.245-3.306,1.632-3.662,3.447l0,0c-0.085,0.436-0.715,0.417-0.774-0.023l0,0c-0.245-1.833-1.632-3.307-3.447-3.662l0,0
				c-0.436-0.085-0.417-0.715,0.023-0.774l0,0c1.833-0.245,3.307-1.632,3.662-3.447l0,0c0.085-0.436,0.715-0.417,0.774,0.023l0,0
				C323.073,135.412,324.459,136.885,326.274,137.241z"/>
		</g>
		<g>
			<path style="fill:#407BFF;" d="M173.669,120.576l1.113,0.107l-1.089,0.255c-0.687,0.161-1.195,0.742-1.263,1.445l-0.107,1.113
				l-0.255-1.089c-0.161-0.687-0.742-1.195-1.445-1.263l-1.113-0.107l1.089-0.255c0.687-0.161,1.195-0.742,1.263-1.445l0.107-1.113
				l0.255,1.089C172.385,120,172.967,120.508,173.669,120.576z"/>
			<path style="opacity:0.2;fill:#407BFF;" d="M176.054,120.331L176.054,120.331c0.442,0.043,0.484,0.671,0.052,0.772l0,0
				c-1.801,0.422-3.132,1.945-3.31,3.786l0,0c-0.043,0.442-0.671,0.484-0.773,0.052l0,0c-0.422-1.801-1.945-3.132-3.786-3.31l0,0
				c-0.442-0.043-0.484-0.671-0.052-0.773l0,0c1.801-0.422,3.132-1.945,3.31-3.786l0,0c0.043-0.442,0.671-0.484,0.773-0.052l0,0
				C172.69,118.822,174.213,120.153,176.054,120.331z"/>
		</g>
		<g>
			<path style="fill:#407BFF;" d="M379.726,289.628l1.846,0.314l-1.849,0.295c-1.168,0.186-2.086,1.095-2.285,2.261l-0.314,1.846
				l-0.295-1.849c-0.186-1.167-1.095-2.086-2.261-2.285l-1.846-0.314l1.849-0.295c1.167-0.186,2.086-1.095,2.285-2.261l0.314-1.846
				l0.295,1.849C377.651,288.511,378.56,289.43,379.726,289.628z"/>
			<path style="opacity:0.2;fill:#407BFF;" d="M383.739,289.508L383.739,289.508c0.733,0.125,0.728,1.18-0.007,1.297l0,0
				c-3.059,0.487-5.467,2.87-5.986,5.924l0,0c-0.125,0.733-1.18,0.728-1.297-0.007l0,0c-0.488-3.059-2.871-5.467-5.924-5.986l0,0
				c-0.733-0.125-0.728-1.18,0.007-1.297h0c3.059-0.488,5.467-2.871,5.986-5.924l0,0c0.125-0.733,1.18-0.728,1.297,0.007l0,0
				C378.303,286.58,380.686,288.988,383.739,289.508z"/>
		</g>
		<g>
			<path style="fill:#407BFF;" d="M424.401,110.85l1.861,0.203l-1.828,0.404c-1.154,0.255-2.017,1.218-2.146,2.393l-0.203,1.861
				l-0.404-1.828c-0.255-1.154-1.218-2.017-2.393-2.146l-1.861-0.203l1.828-0.404c1.154-0.255,2.017-1.218,2.146-2.393l0.203-1.861
				l0.404,1.828C422.263,109.858,423.226,110.721,424.401,110.85z"/>
			<path style="opacity:0.2;fill:#407BFF;" d="M428.4,110.491L428.4,110.491c0.739,0.081,0.797,1.134,0.07,1.295l0,0
				c-3.025,0.669-5.286,3.191-5.623,6.27l0,0c-0.081,0.739-1.134,0.797-1.295,0.07l0,0c-0.669-3.024-3.191-5.286-6.27-5.623l0,0
				c-0.739-0.081-0.796-1.134-0.07-1.295l0,0c3.024-0.669,5.286-3.191,5.623-6.27l0,0c0.081-0.739,1.134-0.797,1.295-0.071l0,0
				C422.799,107.893,425.321,110.154,428.4,110.491z"/>
		</g>
		<g>
			<path style="fill:#407BFF;" d="M200.249,104.628l1.66,0.295l-1.667,0.253c-1.052,0.16-1.886,0.973-2.072,2.021l-0.295,1.66
				l-0.254-1.667c-0.16-1.052-0.973-1.886-2.021-2.072l-1.66-0.295l1.667-0.254c1.053-0.16,1.886-0.973,2.072-2.021l0.294-1.66
				l0.253,1.667C198.388,103.608,199.201,104.442,200.249,104.628z"/>
			<path style="opacity:0.2;fill:#407BFF;" d="M203.864,104.545L203.864,104.545c0.659,0.117,0.648,1.067-0.014,1.168l0,0
				c-2.758,0.419-4.941,2.55-5.428,5.296l0,0c-0.117,0.659-1.067,0.647-1.168-0.014v0c-0.419-2.758-2.55-4.941-5.296-5.428l0,0
				c-0.659-0.117-0.648-1.067,0.014-1.168l0,0c2.758-0.419,4.941-2.55,5.428-5.296l0,0c0.117-0.659,1.067-0.648,1.168,0.014l0,0
				C198.987,101.874,201.118,104.058,203.864,104.545z"/>
		</g>
		<g>
			<path style="fill:#407BFF;" d="M85.452,337.266l1.098,0.211l-1.108,0.152c-0.699,0.096-1.26,0.627-1.393,1.32l-0.211,1.098
				l-0.152-1.108c-0.096-0.699-0.627-1.26-1.32-1.393l-1.098-0.211l1.108-0.152c0.699-0.096,1.26-0.627,1.393-1.32l0.211-1.098
				l0.152,1.108C84.228,336.572,84.758,337.133,85.452,337.266z"/>
			<path style="opacity:0.2;fill:#407BFF;" d="M87.849,337.246L87.849,337.246c0.436,0.084,0.419,0.714-0.021,0.774l0,0
				c-1.832,0.252-3.301,1.643-3.65,3.459l0,0c-0.084,0.436-0.714,0.419-0.774-0.021l0,0c-0.251-1.832-1.643-3.301-3.459-3.65l0,0
				c-0.436-0.084-0.419-0.714,0.021-0.774l0,0c1.833-0.251,3.301-1.643,3.65-3.459l0,0c0.084-0.436,0.714-0.419,0.774,0.021l0,0
				C84.642,335.428,86.033,336.897,87.849,337.246z"/>
		</g>
	</g>
</g>
<g id="Clouds">
	<g>
		<g>
			<g>
				<path style="fill:#407BFF;" d="M217.423,172.677c1.69-7.253-0.687-15.426-6.321-20.296c-5.634-4.871-14.371-5.974-20.827-2.262
					c-6.456,3.712-9.898,12.17-7.46,19.207c-4.013-3.121-9.763-3.834-14.416-1.786c1.777-3.899,0.865-8.862-2.182-11.874
					c-3.047-3.012-8.021-3.866-11.898-2.044c0.176-8.043-3.565-16.21-10.134-20.855c-6.568-4.646-15.862-5.368-22.798-1.291
					c-6.936,4.077-10.846,12.96-8.642,20.697c-5.393,0.118-10.996,1.843-14.604,5.852c-3.608,4.01-4.582,10.592-1.262,14.843
					c-7.165-2.54-19.788,0.517-21.705,12.128l161.255-5.169C233.982,172.473,224.112,168.759,217.423,172.677z"/>
			</g>
			<g style="opacity:0.8;">
				<path style="fill:#FFFFFF;" d="M217.423,172.677c1.69-7.253-0.687-15.426-6.321-20.296c-5.634-4.871-14.371-5.974-20.827-2.262
					c-6.456,3.712-9.898,12.17-7.46,19.207c-4.013-3.121-9.763-3.834-14.416-1.786c1.777-3.899,0.865-8.862-2.182-11.874
					c-3.047-3.012-8.021-3.866-11.898-2.044c0.176-8.043-3.565-16.21-10.134-20.855c-6.568-4.646-15.862-5.368-22.798-1.291
					c-6.936,4.077-10.846,12.96-8.642,20.697c-5.393,0.118-10.996,1.843-14.604,5.852c-3.608,4.01-4.582,10.592-1.262,14.843
					c-7.165-2.54-19.788,0.517-21.705,12.128l161.255-5.169C233.982,172.473,224.112,168.759,217.423,172.677z"/>
			</g>
		</g>
		<g style="opacity:0.3;">
			<path style="fill:#407BFF;" d="M171.231,181.919c0,0-59.381-1.355-69.844-0.573c-0.145-4.222,4.164-8.003,8.331-7.308
				c-1.979-4.328-1.573-9.662,1.04-13.64c2.613-3.978,7.345-6.47,12.104-6.374c-2.949-5.205-2.93-11.965,0.047-17.154
				c2.212-3.855,5.999-6.734,10.252-7.995c-4.089-0.3-8.237,0.524-11.774,2.603c-6.936,4.077-10.846,12.96-8.642,20.697
				c-5.393,0.118-10.996,1.843-14.604,5.852c-3.608,4.01-4.582,10.592-1.262,14.843c-7.165-2.54-19.788,0.517-21.705,12.128
				L171.231,181.919L171.231,181.919z"/>
		</g>
	</g>
	<g>
		<g>
			<g>
				<path style="fill:#407BFF;" d="M407.763,240.237c1.993-7.175-0.039-15.441-5.463-20.544s-14.107-6.572-20.714-3.134
					c-6.606,3.438-10.4,11.743-8.259,18.876c-3.878-3.287-9.594-4.24-14.328-2.39c1.939-3.82,1.236-8.818-1.682-11.955
					c-2.918-3.137-7.851-4.199-11.802-2.541c0.513-8.029-2.881-16.345-9.249-21.262c-6.368-4.917-15.622-6.029-22.724-2.247
					c-7.101,3.782-11.381,12.493-9.504,20.316c-5.393-0.108-11.063,1.379-14.837,5.234c-3.773,3.854-5.023,10.39-1.885,14.777
					c-7.052-2.838-19.792-0.314-22.195,11.206l161.329,1.607C424.315,240.728,414.61,236.603,407.763,240.237z"/>
			</g>
			<g style="opacity:0.8;">
				<path style="fill:#FFFFFF;" d="M407.763,240.237c1.993-7.175-0.039-15.441-5.463-20.544s-14.107-6.572-20.714-3.134
					c-6.606,3.438-10.4,11.743-8.259,18.876c-3.878-3.287-9.594-4.24-14.328-2.39c1.939-3.82,1.236-8.818-1.682-11.955
					c-2.918-3.137-7.851-4.199-11.802-2.541c0.513-8.029-2.881-16.345-9.249-21.262c-6.368-4.917-15.622-6.029-22.724-2.247
					c-7.101,3.782-11.381,12.493-9.504,20.316c-5.393-0.108-11.063,1.379-14.837,5.234c-3.773,3.854-5.023,10.39-1.885,14.777
					c-7.052-2.838-19.792-0.314-22.195,11.206l161.329,1.607C424.315,240.728,414.61,236.603,407.763,240.237z"/>
			</g>
		</g>
		<g style="opacity:0.3;">
			<path style="fill:#407BFF;" d="M361.223,247.531c0,0-59.272-3.847-69.758-3.506c0.032-4.225,4.497-7.821,8.631-6.952
				c-1.796-4.408-1.166-9.719,1.612-13.584c2.778-3.865,7.611-6.156,12.361-5.86c-2.728-5.324-2.425-12.078,0.767-17.137
				c2.372-3.759,6.276-6.477,10.578-7.557c-4.072-0.472-8.252,0.178-11.873,2.106c-7.101,3.782-11.381,12.493-9.504,20.316
				c-5.393-0.108-11.063,1.379-14.837,5.234c-3.773,3.854-5.023,10.39-1.885,14.777c-7.052-2.839-19.792-0.314-22.195,11.206
				L361.223,247.531L361.223,247.531z"/>
		</g>
	</g>
	<g>
		<g>
			<g>
				<path style="fill:#407BFF;" d="M135.532,318.497c1.329-4.786-0.026-10.299-3.644-13.703c-3.618-3.404-9.409-4.383-13.816-2.09
					c-4.406,2.293-6.937,7.833-5.509,12.59c-2.586-2.193-6.399-2.828-9.557-1.594c1.293-2.548,0.824-5.881-1.122-7.974
					c-1.946-2.092-5.237-2.801-7.872-1.695c0.342-5.355-1.922-10.902-6.169-14.182c-4.247-3.28-10.42-4.021-15.156-1.499
					c-4.736,2.523-7.591,8.332-6.339,13.551c-3.597-0.072-7.379,0.92-9.896,3.491c-2.517,2.571-3.35,6.93-1.257,9.856
					c-4.704-1.893-13.201-0.21-14.804,7.474l107.605,1.072C146.572,318.825,140.099,316.073,135.532,318.497z"/>
			</g>
			<g style="opacity:0.8;">
				<path style="fill:#FFFFFF;" d="M135.532,318.497c1.329-4.786-0.026-10.299-3.644-13.703c-3.618-3.404-9.409-4.383-13.816-2.09
					c-4.406,2.293-6.937,7.833-5.509,12.59c-2.586-2.193-6.399-2.828-9.557-1.594c1.293-2.548,0.824-5.881-1.122-7.974
					c-1.946-2.092-5.237-2.801-7.872-1.695c0.342-5.355-1.922-10.902-6.169-14.182c-4.247-3.28-10.42-4.021-15.156-1.499
					c-4.736,2.523-7.591,8.332-6.339,13.551c-3.597-0.072-7.379,0.92-9.896,3.491c-2.517,2.571-3.35,6.93-1.257,9.856
					c-4.704-1.893-13.201-0.21-14.804,7.474l107.605,1.072C146.572,318.825,140.099,316.073,135.532,318.497z"/>
			</g>
		</g>
		<g style="opacity:0.3;">
			<path style="fill:#407BFF;" d="M104.49,323.362c0,0-39.533-2.566-46.528-2.338c0.021-2.818,2.999-5.216,5.757-4.637
				c-1.198-2.94-0.777-6.483,1.075-9.061c1.853-2.578,5.076-4.106,8.245-3.909c-1.82-3.551-1.618-8.056,0.512-11.43
				c1.582-2.507,4.186-4.32,7.056-5.04c-2.716-0.315-5.504,0.118-7.919,1.405c-4.736,2.523-7.591,8.332-6.339,13.551
				c-3.597-0.072-7.379,0.92-9.896,3.491c-2.517,2.571-3.35,6.93-1.257,9.856c-4.704-1.893-13.201-0.21-14.804,7.474L104.49,323.362
				L104.49,323.362z"/>
		</g>
	</g>
</g>
<g id="Moon">
	<g>
		<g>
			<g>
				<path style="fill:#407BFF;" d="M430.646,421.594c-5.612-4.801-15.048-6.928-21.266-2.969c1.766-7.056,1.105-15.145-3.511-20.723
					c-4.616-5.578-13.768-7.396-19.172-2.599c4.063-17.635,6.712-38.092-4.516-52.183c-3.358-4.214-7.763-7.504-12.557-9.898
					c-9.593-4.79-21.313-5.92-30.988-1.302c-9.675,4.618-16.544,15.578-14.905,26.285c-7.818-5.584-19.243-5.29-26.771,0.688
					c-2.095-6.685-4.358-13.655-9.306-18.561c-4.947-4.906-13.462-6.888-18.796-2.416c4.69-19.138-2.483-40.636-17.425-53.273
					c-4.785-4.047-10.426-7.287-16.594-8.197c-5.86-0.864-11.806,0.409-17.554,1.848c-15.173,3.798-31.013,9.474-40.448,22.098
					c-8.315,11.126-10.209,25.714-11.792,39.578c-1.086,9.51-2.07,19.598,1.955,28.259c-11.034-5.577-25.345-2.425-34.039,6.434
					c-8.694,8.859-11.828,22.509-9.194,34.713c-13.585-3.41-33.839,22.551-32.239,36.637l342.802,0.135
					C437.141,439.273,436.257,426.394,430.646,421.594z"/>
			</g>
			<g style="opacity:0.8;">
				<path style="fill:#FFFFFF;" d="M430.646,421.594c-5.612-4.801-15.048-6.928-21.266-2.969c1.766-7.056,1.105-15.145-3.511-20.723
					c-4.616-5.578-13.768-7.396-19.172-2.599c4.063-17.635,6.712-38.092-4.516-52.183c-3.358-4.214-7.763-7.504-12.557-9.898
					c-9.593-4.79-21.313-5.92-30.988-1.302c-9.675,4.618-16.544,15.578-14.905,26.285c-7.818-5.584-19.243-5.29-26.771,0.688
					c-2.095-6.685-4.358-13.655-9.306-18.561c-4.947-4.906-13.462-6.888-18.796-2.416c4.69-19.138-2.483-40.636-17.425-53.273
					c-4.785-4.047-10.426-7.287-16.594-8.197c-5.86-0.864-11.806,0.409-17.554,1.848c-15.173,3.798-31.013,9.474-40.448,22.098
					c-8.315,11.126-10.209,25.714-11.792,39.578c-1.086,9.51-2.07,19.598,1.955,28.259c-11.034-5.577-25.345-2.425-34.039,6.434
					c-8.694,8.859-11.828,22.509-9.194,34.713c-13.585-3.41-33.839,22.551-32.239,36.637l342.802,0.135
					C437.141,439.273,436.257,426.394,430.646,421.594z"/>
			</g>
		</g>
		<g>
			<path style="fill:#407BFF;" d="M306.094,379.645c-58.509-1.497-112.718-53.418-114.476-118.479
				c-1.601-59.239,35.675-128.928,101.439-137.421c-6.072-0.728-12.249-1.113-18.517-1.113c-84.993,0-153.893,68.9-153.893,153.893
				s68.9,153.894,153.893,153.894c62.044,0,115.504-36.721,139.855-89.61C389.847,371.066,348.078,380.719,306.094,379.645z"/>
			<path style="opacity:0.3;fill:#FFFFFF;" d="M306.094,379.645c-58.509-1.497-112.718-53.418-114.476-118.479
				c-1.601-59.239,35.675-128.928,101.439-137.421c-6.072-0.728-12.249-1.113-18.517-1.113c-84.993,0-153.893,68.9-153.893,153.893
				s68.9,153.894,153.893,153.894c62.044,0,115.504-36.721,139.855-89.61C389.847,371.066,348.078,380.719,306.094,379.645z"/>
			<g>
				<g style="opacity:0.5;">
					<path style="fill:#407BFF;" d="M180.996,329.064c1.175-5.353,5.2-9.558,7.71-14.43c2.51-4.872,2.94-11.905-1.672-14.865
						c-2.718-1.745-6.231-1.425-9.349-2.263c-6.462-1.736-10.409-8.075-13.711-13.895c-0.931-1.641-1.885-3.357-1.992-5.241
						c-0.244-4.295,3.943-7.568,8.047-8.855c4.105-1.287,8.615-1.465,12.34-3.616c-0.845-1.415-1.691-2.83-2.536-4.244
						c3.467-0.72,7.788,2.602,10.186-0.004c0.801-0.871,0.991-2.146,0.923-3.327c-0.404-7.018-7.962-11.371-10.597-17.888
						c-1.849-4.571-1.102-9.785-2.342-14.558c-1.24-4.773-6.281-9.42-10.679-7.19c-1.25,0.634-2.199,1.722-3.303,2.585
						c-4.112,3.213-10.621,2.78-14.271-0.95c-2.53-2.585-7.781-11.881-9.669-18.691c-12.374,22.167-19.435,47.704-19.435,74.894
						c0,26.97,6.946,52.313,19.133,74.355c4.637,0.07,9.359-2.295,10.7-6.657c0.548-1.783,0.501-3.694,0.889-5.518
						c1.212-5.708,6.64-9.799,12.344-11.029C169.417,326.447,175.356,327.568,180.996,329.064z"/>
				</g>
				<g style="opacity:0.3;">
					<path style="fill:#407BFF;" d="M217.906,157.193c-0.651-0.227-1.386-0.443-2.007-0.143c-0.568,0.274-0.861,0.896-1.26,1.384
						c-1.633,1.999-4.781,1.579-7.207,0.698c-2.426-0.881-5.121-2.04-7.465-0.96c-2.032,0.937-2.999,3.212-4.328,5.012
						c-1.886,2.555-4.489,4.562-4.702,7.295c-4.641-0.224-9.261,2.798-10.915,7.141c-1.654,4.343-0.214,9.672,3.401,12.592
						c1.33,1.074,2.939,1.873,3.904,3.284c0.61,0.891,0.908,1.954,1.361,2.934c1.557,3.369,5.135,5.703,8.846,5.769
						c1.817,0.033,3.619-0.486,5.185-1.405c1.847-4.615,3.916-9.145,6.203-13.554c0.48-1.924,1.222-3.66,2.681-4.937
						c4.368-7.688,9.42-14.947,15.129-21.578C223.845,159.415,220.899,158.235,217.906,157.193z"/>
				</g>
				<g style="opacity:0.3;">
					<path style="fill:#407BFF;" d="M286.75,386.078c1.91,2.979,1.861,6.763,2.821,10.168c0.96,3.406,3.941,6.922,7.389,6.126
						c1.421-0.328,2.649-1.358,4.104-1.453c2.054-0.135,3.76,1.603,5.781,1.992c3.417,0.658,6.45-2.93,6.585-6.406
						c0.135-3.477-1.699-6.689-3.474-9.681c6.7-2.675,14.185-3.344,21.253-1.9c0.054-2.23-0.631-4.138-1.76-5.862
						c-7.704,0.61-15.526,0.784-23.356,0.583c-36.821-0.942-71.934-21.859-93.348-53.448c-4.356,1.297-8.713,2.593-13.069,3.889
						c-1.952,0.581-4.163,1.396-4.851,3.313c-0.554,1.543,0.109,3.23,0.762,4.733c2.544,5.856,5.087,11.712,7.631,17.568
						c0.539,1.24,1.106,2.52,2.112,3.423c3.09,2.774,7.851,0.546,11.956-0.087c8.49-1.308,16.238,5.088,21.357,11.987
						c5.119,6.899,9.178,14.965,16.329,19.725c4.14,2.756,10.256,3.939,13.729,0.379c1.594-1.634,2.288-3.947,3.699-5.741
						C275.86,380.985,283.729,381.365,286.75,386.078z"/>
				</g>
				<g style="opacity:0.5;">
					<path style="fill:#407BFF;" d="M381.374,377.668c-1.559,1.427-2.377,4.242-4.485,4.09c-1.195-0.087-2.016-1.177-2.862-2.026
						c-2.449-2.459-6.362-3.334-9.626-2.153c-0.469,0.17-0.948,0.397-1.231,0.807c-0.488,0.707-0.235,1.664-0.345,2.517
						c-0.332,2.57-3.958,4.204-3.386,6.732c0.188,0.831,0.831,1.516,0.963,2.358c0.293,1.875-1.97,3.106-3.862,3.269
						c-1.891,0.163-4.052-0.034-5.408,1.294c-1.802,1.765-0.853,4.751-0.066,7.147c0.788,2.396,0.795,5.822-1.614,6.57
						c-0.677,0.21-1.425,0.137-2.086,0.393c-1.562,0.605-1.765,2.437-1.461,4.216c16.744-8.784,31.668-20.557,44.068-34.617
						c-0.422-0.256-0.853-0.499-1.298-0.715C386.347,376.416,383.283,375.92,381.374,377.668z"/>
				</g>
			</g>
			<path style="opacity:0.5;fill:#407BFF;" d="M282.011,417.611c-84.993,0-153.894-68.9-153.894-153.893
				c0-25.586,6.251-49.709,17.299-70.937c-15.664,24.102-24.77,52.858-24.77,83.745c0,84.993,68.9,153.894,153.893,153.894
				c59.359,0,110.842-33.624,136.513-82.849C383.603,389.729,336.069,417.611,282.011,417.611z"/>
			<g>
				<path style="opacity:0.5;fill:#407BFF;" d="M137.054,280.066c1.913,8.515,7.194,14.58,11.794,13.546
					c4.6-1.034,6.778-8.774,4.865-17.29c-1.913-8.515-7.193-14.58-11.794-13.546C137.318,263.81,135.141,271.551,137.054,280.066z"
					/>
				<path style="opacity:0.2;" d="M136.982,280.099c-1.913-8.515,0.265-16.256,4.865-17.29c0.297-0.067,0.596-0.103,0.897-0.111
					c-4.005,1.753-5.796,9.04-4.006,17.006c1.79,7.966,6.527,13.786,10.896,13.658c-0.276,0.121-0.562,0.216-0.859,0.283
					C144.176,294.679,138.896,288.614,136.982,280.099z"/>
			</g>
			<g>
				<path style="opacity:0.5;fill:#407BFF;" d="M217.707,398.135c-8.366-5.058-12.923-12.804-10.178-17.302
					c2.745-4.498,11.753-4.043,20.119,1.015s12.923,12.804,10.178,17.302C235.081,403.647,226.073,403.193,217.707,398.135z"/>
				<path style="opacity:0.2;" d="M217.647,398.199c8.366,5.058,17.374,5.512,20.119,1.015c0.177-0.29,0.322-0.594,0.44-0.91
					c-3.297,3.612-11.684,2.91-19.511-1.822c-7.827-4.732-12.318-11.816-10.618-16.392c-0.227,0.249-0.431,0.518-0.608,0.807
					C204.723,385.395,209.28,393.141,217.647,398.199z"/>
			</g>
			<g>
				<path style="opacity:0.5;fill:#407BFF;" d="M139.889,250.352c0.725-2.253,2.694-3.335,4.398-2.417
					c1.704,0.919,2.498,3.49,1.773,5.743c-0.725,2.253-2.694,3.335-4.399,2.417C139.958,255.176,139.164,252.605,139.889,250.352z"
					/>
				<path style="opacity:0.2;" d="M139.863,250.332c-0.725,2.253,0.069,4.824,1.773,5.743c0.11,0.059,0.221,0.11,0.333,0.153
					c-1.482-1.051-2.133-3.437-1.455-5.545c0.678-2.108,2.446-3.191,4.066-2.569c-0.102-0.072-0.208-0.139-0.318-0.198
					C142.557,246.997,140.588,248.079,139.863,250.332z"/>
			</g>
			<g>
				<path style="opacity:0.5;fill:#407BFF;" d="M191.029,376.655c-0.84-3.208,0.671-5.97,3.376-6.168
					c2.705-0.199,5.58,2.241,6.42,5.449c0.84,3.208-0.671,5.97-3.377,6.168C194.744,382.303,191.869,379.863,191.029,376.655z"/>
				<path style="opacity:0.2;" d="M190.983,376.653c0.84,3.208,3.715,5.648,6.42,5.449c0.174-0.013,0.344-0.037,0.508-0.07
					c-2.543-0.125-5.109-2.454-5.895-5.455c-0.786-3.001,0.486-5.612,2.868-6.098c-0.175-0.009-0.35-0.007-0.525,0.006
					C191.654,370.683,190.143,373.444,190.983,376.653z"/>
			</g>
			<g>
				<path style="opacity:0.5;fill:#407BFF;" d="M334.576,408.049c-3.766,0.947-6.983-0.855-7.184-4.025
					c-0.201-3.17,2.689-6.507,6.455-7.454c3.766-0.947,6.983,0.855,7.184,4.025C341.232,403.764,338.342,407.102,334.576,408.049z"
					/>
				<path style="opacity:0.2;" d="M334.572,408.102c3.766-0.947,6.656-4.285,6.455-7.454c-0.013-0.204-0.039-0.403-0.076-0.596
					c-0.176,2.976-2.932,5.954-6.456,6.84c-3.523,0.886-6.565-0.634-7.107-3.429c-0.012,0.205-0.013,0.41,0,0.615
					C327.59,407.247,330.806,409.049,334.572,408.102z"/>
			</g>
			<path style="opacity:0.3;fill:#FFFFFF;" d="M400.302,354.609c-24.816,19.442-59.433,25.926-94.209,25.036
				c-58.509-1.497-112.718-53.418-114.476-118.479c-1.601-59.239,35.675-128.928,101.439-137.421
				c-0.118-0.014-0.238-0.023-0.356-0.037c-65.786,8.366-116.646,64.546-116.646,132.604c0,73.829,59.85,133.679,133.68,133.679
				C344.683,389.991,376.486,376.567,400.302,354.609z"/>
			<g>
				<g>
					<path style="fill:#FFFFFF;" d="M292.088,124.756c0.119,0.012,0.237,0.025,0.356,0.037c0-0.5,0-1,0-1.5
						c-14.854,1.944-29.11,7.117-41.73,15.198c-12.241,7.838-22.756,18.149-31.365,29.826c-8.79,11.923-15.602,25.273-20.468,39.25
						c-4.787,13.747-7.702,28.184-8.475,42.725c-0.842,15.851,1.117,31.739,6.232,46.788c5.06,14.889,12.989,28.742,23.15,40.737
						c9.977,11.779,22.123,21.759,35.692,29.133c13.233,7.191,27.832,11.871,42.841,13.309c9.13,0.874,18.437,0.654,27.578,0.062
						c9.456-0.612,18.89-1.863,28.135-3.961c17.694-4.016,35.76-11.232,49.242-23.691c3.979-3.677,7.83-7.489,11.65-11.329
						c0.682-0.685-0.379-1.746-1.061-1.061c-3.878,3.898-7.788,7.766-11.83,11.495c-3.402,3.138-7.076,5.83-11.001,8.281
						c-7.675,4.793-15.982,8.511-24.573,11.327c-18.031,5.909-37.165,7.987-56.077,7.888c-7.852-0.041-15.615-0.62-23.314-2.224
						c-7.287-1.518-14.427-3.787-21.261-6.736c-13.891-5.994-26.569-14.682-37.325-25.309
						c-11.012-10.881-19.998-23.784-26.32-37.919c-6.546-14.634-10.11-30.54-10.431-46.567c-0.283-14.172,1.625-28.366,5.34-42.036
						c3.823-14.067,9.581-27.628,17.245-40.036c7.574-12.263,17.06-23.397,28.362-32.377c11.368-9.032,24.568-15.697,38.675-19.185
						c3.653-0.903,7.357-1.599,11.089-2.088c0.951-0.125,0.976-1.397,0-1.5c-0.119-0.012-0.237-0.025-0.356-0.037
						C291.129,123.156,291.136,124.656,292.088,124.756L292.088,124.756z"/>
				</g>
			</g>
		</g>
		<g>
			<g>
				<path style="fill:#407BFF;" d="M384.535,439.932c-3.332-8.985-16.584-12.244-23.704-5.83
					c-3.79-7.626-11.384-13.24-19.787-14.628c-8.402-1.388-17.398,1.487-23.439,7.49c-5.543-9.66-15.926-16.375-27.01-17.468
					c-11.084-1.093-22.579,3.465-29.902,11.856c-0.289-6.104-9.606-9.209-13.499-4.498c-2.718-19.029-19.534-35.108-38.665-36.971
					c-19.131-1.863-38.734,10.671-45.071,28.818c-3.847-3.768-10.415-4.337-14.853-1.286c-4.438,3.051-6.259,9.387-4.119,14.328
					c-4.766-0.912-9.957,2.345-11.209,7.033c-5.266-5.824-13.595-8.708-21.335-7.388c-7.74,1.32-14.642,6.803-17.679,14.044
					c0,0-22.353-5.651-26.622,10.715h341.128C402.542,439.825,391.418,434.33,384.535,439.932z"/>
			</g>
			<g style="opacity:0.8;">
				<path style="fill:#FFFFFF;" d="M384.535,439.932c-3.332-8.985-16.584-12.244-23.704-5.83
					c-3.79-7.626-11.384-13.24-19.787-14.628c-8.402-1.388-17.398,1.487-23.439,7.49c-5.543-9.66-15.926-16.375-27.01-17.468
					c-11.084-1.093-22.579,3.465-29.902,11.856c-0.289-6.104-9.606-9.209-13.499-4.498c-2.718-19.029-19.534-35.108-38.665-36.971
					c-19.131-1.863-38.734,10.671-45.071,28.818c-3.847-3.768-10.415-4.337-14.853-1.286c-4.438,3.051-6.259,9.387-4.119,14.328
					c-4.766-0.912-9.957,2.345-11.209,7.033c-5.266-5.824-13.595-8.708-21.335-7.388c-7.74,1.32-14.642,6.803-17.679,14.044
					c0,0-22.353-5.651-26.622,10.715h341.128C402.542,439.825,391.418,434.33,384.535,439.932z"/>
			</g>
			<g style="opacity:0.3;">
				<path style="fill:#407BFF;" d="M152.221,410.548c5.103-0.643,10.17,3.479,11.079,8.542c2.799-10.954,10.37-20.599,20.346-25.92
					c9.976-5.321,22.203-6.235,32.86-2.458c6.347,2.25,12.283,6.274,15.63,12.116c3.954,6.903,3.854,15.313,3.644,23.266
					c4.205-2.321,9.103-3.726,13.832-2.889c4.729,0.837,9.164,4.27,10.236,8.952c3.36-6.871,9.989-11.862,17.321-14.038
					c7.332-2.176,15.29-1.701,22.622,0.476c6.555,1.946,16.016,8.284,16.071,15.121c3.163-4.168,8.959-6.889,13.973-8.384
					c6.372-1.9,10.986-1.315,15.951,0.335c6.183,2.055,11.045,6.323,15.126,11.402c-0.012-1.126-0.089-2.25-0.21-3.369
					c-3.842-7.463-11.333-12.943-19.617-14.311c-8.402-1.388-17.398,1.487-23.439,7.49c-5.543-9.66-15.926-16.375-27.01-17.468
					c-11.084-1.093-22.579,3.465-29.902,11.856c-0.289-6.105-9.606-9.209-13.499-4.498c-2.718-19.029-19.534-35.108-38.665-36.971
					c-19.131-1.862-38.734,10.671-45.071,28.818c-3.847-3.768-10.415-4.337-14.853-1.286c-4.416,3.036-6.238,9.324-4.147,14.255
					l0.372,0.247C143.169,416.978,147.118,411.191,152.221,410.548z"/>
			</g>
		</g>
	</g>
</g>
</svg>
