<?xml version="1.0" standalone="no"?>
<!DOCTYPE svg PUBLIC "-//W3C//DTD SVG 20010904//EN"
 "http://www.w3.org/TR/2001/REC-SVG-20010904/DTD/svg10.dtd">
<svg version="1.0" xmlns="http://www.w3.org/2000/svg"
 width="70" height="60" viewBox="0 0 300.000000 300.000000"
 preserveAspectRatio="xMidYMid meet">
<metadata>
Created by potrace 1.10, written by Peter Selinger 2001-2011
</metadata>
<g transform="translate(0.000000,300.000000) scale(0.100000,-0.100000)"
fill="#ffffff" stroke="none">
<path d="M1295 2386 c-97 -32 -179 -75 -252 -135 -60 -48 -62 -49 -65 -26 -3
22 -8 18 -55 -39 -64 -78 -102 -141 -137 -230 -48 -119 -68 -283 -46 -371 9
-37 9 -36 15 100 4 113 26 209 65 289 11 23 20 48 20 54 0 7 5 12 10 12 6 0
10 6 10 13 0 8 9 22 20 32 11 10 20 22 20 27 0 5 13 26 30 46 22 27 37 37 56
37 16 -1 38 9 57 27 19 17 35 24 40 19 6 -6 34 10 71 38 70 56 128 87 206 112
34 11 46 18 30 18 -14 0 -56 -10 -95 -23z"/>
<path d="M1475 2365 c-94 -17 -158 -43 -236 -95 -75 -50 -274 -247 -284 -281
-4 -13 -15 -33 -25 -44 -28 -30 -74 -130 -106 -225 -25 -75 -28 -100 -28 -220
-1 -111 3 -150 22 -220 27 -101 84 -223 125 -268 10 -10 17 -22 17 -26 0 -3
13 -21 29 -39 16 -17 38 -41 48 -53 10 -11 56 -49 102 -83 61 -45 76 -60 55
-55 -49 12 -161 69 -192 97 -10 10 -22 17 -26 17 -23 0 -206 204 -206 229 0 6
-3 11 -8 11 -4 0 -18 27 -31 60 -18 44 -22 69 -17 99 3 22 1 52 -5 68 -18 47
-31 179 -21 222 l5 24 14 -27 c20 -38 25 -28 11 20 -14 50 -14 188 0 237 6 20
7 35 2 32 -4 -3 -18 -42 -31 -87 -30 -107 -33 -317 -6 -414 9 -34 17 -70 17
-79 0 -15 -2 -16 -17 -4 -15 12 -16 12 -9 -6 5 -11 11 -31 16 -45 28 -94 140
-253 232 -330 106 -89 257 -161 367 -176 28 -4 51 -10 51 -15 0 -13 -113 -11
-147 2 -64 24 -3 -12 68 -40 269 -108 549 -72 744 94 41 34 54 41 73 34 24 -9
29 -38 10 -57 -8 -8 -9 -12 -1 -12 6 0 38 29 70 64 136 149 199 354 162 528
-24 114 -98 221 -180 263 -32 17 -32 15 13 -28 95 -92 133 -223 105 -361 -24
-118 -68 -198 -162 -292 -132 -133 -287 -195 -490 -195 -368 0 -675 247 -771
621 -27 105 -22 283 10 393 41 140 101 241 201 341 143 143 304 208 510 207
134 0 234 -24 343 -81 83 -43 202 -133 202 -153 0 -7 20 -28 44 -47 74 -58
155 -193 180 -298 8 -32 15 -46 15 -32 3 85 -88 293 -167 380 -27 30 -49 60
-49 65 1 16 -89 80 -161 115 -118 58 -197 73 -382 74 -168 1 -234 -9 -313 -50
-39 -19 -50 -18 -38 4 11 20 150 92 179 92 10 0 24 6 30 13 9 8 49 12 127 12
63 0 115 3 115 8 0 4 10 8 23 8 40 2 -57 18 -108 18 -27 -1 -81 -7 -120 -14z
m787 -1359 c-22 -65 -75 -156 -94 -164 -4 -2 -8 -9 -8 -16 0 -7 -11 -19 -25
-26 -22 -12 -28 -12 -42 2 -14 15 -12 20 25 60 54 58 92 105 92 112 0 4 11 23
24 44 14 20 28 50 32 67 6 25 8 26 14 10 4 -11 -4 -49 -18 -89z m-398 -321
c-10 -8 -25 -12 -31 -10 -7 2 -13 0 -13 -5 0 -9 -31 -22 -60 -25 -8 -1 -35 -8
-60 -15 -75 -21 -332 -3 -368 26 -2 1 2 11 9 21 11 19 13 19 98 1 102 -22 258
-22 338 -1 30 8 57 12 60 9 3 -3 12 2 20 10 9 8 18 12 21 9 3 -3 -3 -12 -14
-20z"/>
<path d="M1686 2342 c-3 -2 -2 -10 1 -18 4 -10 -3 -14 -20 -14 -14 0 -28 -4
-31 -8 -3 -5 9 -8 27 -9 157 0 223 -14 340 -74 33 -17 61 -28 63 -26 10 10
-138 89 -212 114 -80 26 -160 43 -168 35z"/>
<path d="M1142 2250 c-23 -17 -46 -30 -51 -30 -4 0 -17 -12 -27 -26 -10 -14
-31 -40 -46 -57 -15 -18 -28 -38 -28 -44 0 -7 -4 -13 -9 -13 -5 0 -11 -10 -14
-22 -4 -18 0 -15 21 12 34 45 137 149 182 183 47 36 26 34 -28 -3z"/>
<path d="M1664 1761 c-17 -17 17 -21 167 -21 119 0 170 3 167 11 -3 10 -324
20 -334 10z"/>
<path d="M1004 1500 c-1 -143 1 -260 3 -260 6 0 139 79 198 118 28 18 60 35
73 38 12 4 22 9 22 13 0 9 -45 31 -62 31 -17 0 -160 -91 -154 -98 7 -7 76 30
76 41 0 4 4 6 9 2 5 -3 12 -1 16 5 8 13 35 13 35 0 0 -5 -9 -10 -20 -10 -10 0
-24 -8 -29 -17 -6 -10 -11 -14 -11 -9 0 6 -12 -1 -27 -15 -42 -37 -102 -63
-109 -45 -3 7 -4 102 -2 212 3 231 1 228 96 164 34 -22 65 -40 69 -40 4 0 19
-12 32 -26 13 -14 30 -23 37 -20 7 3 16 1 20 -5 7 -12 64 -9 82 4 7 6 15 7 18
4 3 -3 -13 -15 -35 -27 -39 -19 -43 -20 -74 -4 -17 9 -40 23 -49 32 -10 8 -18
11 -18 7 0 -4 -8 -1 -17 7 -27 24 -95 60 -101 53 -7 -7 -10 -5 113 -80 107
-66 110 -67 135 -51 14 9 51 31 82 49 54 30 58 34 58 70 0 20 -2 37 -5 37 -3
0 -40 -23 -81 -51 -41 -28 -78 -49 -82 -47 -22 10 -260 153 -273 165 -8 7 -17
13 -20 13 -2 0 -4 -117 -5 -260z"/>
<path d="M1046 1613 c-8 -49 -5 -242 5 -248 5 -4 9 49 9 134 0 139 -3 168 -14
114z"/>
<path d="M1614 1430 c0 -96 2 -136 3 -87 2 48 2 126 0 175 -1 48 -3 8 -3 -88z"/>
<path d="M1521 1490 c-1 -76 -12 -113 -25 -91 -4 6 -12 9 -17 6 -5 -4 -9 -2
-9 2 0 10 -84 53 -103 53 -7 0 -22 -7 -33 -15 -18 -14 -17 -14 8 -4 26 11 35
8 110 -38 46 -28 84 -50 84 -50 1 1 -1 49 -6 107 -7 103 -7 103 -9 30z"/>
<path d="M1952 1517 c-15 -17 1 -42 23 -33 18 6 17 37 -1 43 -6 2 -16 -2 -22
-10z"/>
<path d="M1660 1496 c0 -10 26 -13 120 -14 100 -1 120 1 120 13 0 12 -21 15
-120 15 -94 0 -120 -3 -120 -14z"/>
<path d="M1330 1375 c7 -8 19 -15 26 -15 8 0 14 -4 14 -10 0 -5 5 -10 11 -10
6 0 52 -25 101 -55 50 -31 95 -54 99 -53 9 3 -242 158 -255 158 -5 0 -3 -7 4
-15z"/>
<path d="M1660 1245 c0 -13 24 -15 171 -15 132 0 170 3 167 13 -4 9 -49 13
-171 15 -144 2 -167 0 -167 -13z"/>
<path d="M1011 1073 c1 -33 2 -34 8 -13 6 22 8 23 14 7 7 -18 27 -15 27 4 0 6
-4 8 -9 4 -5 -3 -12 4 -16 15 -11 33 -25 23 -24 -17z"/>
<path d="M1064 1088 c3 -13 6 -29 6 -37 0 -28 13 -1 14 29 1 19 -4 30 -13 30
-9 0 -11 -7 -7 -22z"/>
<path d="M1107 1104 c-15 -15 -7 -53 13 -59 27 -8 52 12 48 39 -3 21 -46 35
-61 20z m40 -19 c7 -20 -2 -29 -21 -22 -9 4 -13 13 -10 22 8 19 23 19 31 0z"/>
<path d="M1183 1094 c-8 -22 10 -49 32 -49 22 0 40 27 32 49 -8 21 -56 21 -64
0z m50 -9 c7 -17 -8 -29 -28 -21 -17 6 -9 36 10 36 7 0 15 -7 18 -15z"/>
<path d="M1260 1075 c0 -19 5 -35 10 -35 6 0 10 10 10 23 0 22 0 22 20 -3 11
-14 20 -23 20 -20 7 36 6 70 -1 70 -5 0 -9 -7 -9 -17 0 -15 -1 -15 -18 0 -27
24 -32 21 -32 -18z"/>
<path d="M1340 1075 c0 -19 5 -35 10 -35 6 0 10 6 10 14 0 8 8 17 18 19 16 4
16 5 0 6 -10 0 -18 5 -18 10 0 5 8 12 18 14 10 3 6 5 -10 6 -25 1 -28 -2 -28
-34z"/>
<path d="M1400 1076 c0 -36 13 -48 24 -23 5 10 7 10 12 0 10 -23 20 -14 19 20
0 27 -4 32 -27 35 -26 3 -28 1 -28 -32z"/>
<path d="M1477 1104 c-15 -15 -7 -53 13 -59 27 -8 52 12 48 39 -3 21 -46 35
-61 20z m40 -19 c7 -20 -2 -29 -21 -22 -9 4 -13 13 -10 22 8 19 23 19 31 0z"/>
<path d="M1550 1095 c0 -9 10 -20 23 -25 l22 -9 -22 0 c-13 -1 -23 -6 -23 -12
0 -6 10 -9 22 -7 26 3 38 38 14 38 -9 0 -16 5 -16 10 0 6 14 10 30 10 27 0 30
-3 30 -30 0 -16 5 -30 11 -30 7 0 9 10 7 25 -4 17 0 29 11 35 11 7 -2 9 -46
10 -50 0 -63 -3 -63 -15z"/>
<path d="M1700 1075 c0 -31 3 -35 25 -35 28 0 35 20 8 21 -15 0 -15 2 2 9 17
7 17 9 3 9 -10 1 -18 5 -18 10 0 5 8 12 18 14 10 3 6 5 -10 6 -25 1 -28 -2
-28 -34z"/>
<path d="M1767 1103 c-13 -12 -7 -24 16 -33 l22 -9 -24 0 c-18 -1 -22 -4 -14
-12 12 -12 53 -3 53 11 0 5 -10 15 -22 21 -22 12 -22 12 -3 20 19 7 19 8 -1 8
-11 1 -24 -2 -27 -6z"/>
<path d="M1830 1075 c0 -31 3 -35 25 -35 31 0 33 20 3 21 -21 0 -21 1 -4 8 19
7 19 8 0 16 -18 7 -17 8 6 15 l25 8 -27 1 c-25 1 -28 -2 -28 -34z"/>
<path d="M1890 1075 c0 -19 5 -35 10 -35 6 0 10 7 10 17 0 14 2 14 20 -2 20
-18 20 -17 19 21 -1 21 -3 31 -6 22 -6 -22 -19 -23 -27 -3 -10 27 -26 15 -26
-20z"/>
<path d="M1971 1092 c-18 -34 34 -75 54 -42 4 6 -5 10 -20 10 -20 0 -26 4 -23
18 3 11 12 16 26 15 12 -2 22 2 22 7 0 17 -49 11 -59 -8z"/>
<path d="M2040 1077 c0 -25 4 -34 18 -34 9 0 20 5 24 11 5 8 14 7 29 -2 11 -7
22 -12 24 -10 7 7 -25 68 -35 68 -6 0 -17 -15 -25 -32 -14 -34 -19 -31 -15 10
1 12 -3 22 -9 22 -6 0 -11 -15 -11 -33z"/>
</g>
</svg>
